<svg id="SvgjsSvg4199" xmlns="http://www.w3.org/2000/svg" version="1.1" xmlns:xlink="http://www.w3.org/1999/xlink" xmlns:svgjs="http://svgjs.com/svgjs" width="1087.40625" height="823.125"><defs id="SvgjsDefs4200"></defs><g id="SvgjsG4201" transform="translate(25,25.009478472143712)"><path id="SvgjsPath4202" d="M0 4Q0 0 4 0L327 0Q331 0 331 4L331 242.2405215278563Q331 246.2405215278563 327 246.2405215278563L4 246.2405215278563Q0 246.2405215278563 0 242.2405215278563Z " stroke="none" fill-opacity="1" fill="#34313d"></path><g id="SvgjsG4203"><text id="SvgjsText4204" font-family="黑体" text-anchor="middle" font-size="20px" width="0" fill="#ffffff" font-weight="700" align="middle" font-style="" opacity="1" y="107.62026076392814" transform="rotate(0)"></text></g></g><g id="SvgjsG4205" transform="translate(33,92.25)"><path id="SvgjsPath4206" d="M0 0L315 0L315 170.48104305571258L0 170.48104305571258Z " stroke="none" fill-opacity="1" fill="#464353"></path><g id="SvgjsG4207"><text id="SvgjsText4208" font-family="黑体" text-anchor="middle" font-size="20px" width="0" fill="#ffffff" font-weight="700" align="middle" font-style="" opacity="1" y="69.74052152785629" transform="rotate(0)"></text></g></g><g id="SvgjsG4209" transform="translate(53.5,103.43179702119454)"><path id="SvgjsPath4210" d="M0 0L276 0L276 148.51895694428742L0 148.51895694428742Z " stroke="none" fill="none"></path><g id="SvgjsG4211"><text id="SvgjsText4212" font-family="微软雅黑" text-anchor="start" font-size="16px" width="243" fill="#ffffff" font-weight="700" align="middle" font-style="" opacity="1" y="11.859478472143712" transform="rotate(0)"><tspan id="SvgjsTspan4213" dy="20" x="0"><tspan id="SvgjsTspan4214" style="text-decoration:;fill: rgb(153, 153, 255);">{</tspan></tspan><tspan id="SvgjsTspan4215" dy="20" x="0"><tspan id="SvgjsTspan4216" style="text-decoration:;fill: rgb(255, 153, 255);">      "name"</tspan><tspan id="SvgjsTspan4217" style="text-decoration:;">:  </tspan><tspan id="SvgjsTspan4218" style="text-decoration:;fill: rgb(0, 204, 102);">"Forest"</tspan><tspan id="SvgjsTspan4219" style="text-decoration:;">,</tspan></tspan><tspan id="SvgjsTspan4220" dy="20" x="0"><tspan id="SvgjsTspan4221" style="text-decoration:;fill: rgb(255, 153, 255);">      "type"</tspan><tspan id="SvgjsTspan4222" style="text-decoration:;">: </tspan><tspan id="SvgjsTspan4223" style="text-decoration:;fill: rgb(0, 204, 102);"> "http framework"</tspan><tspan id="SvgjsTspan4224" style="text-decoration:;">,</tspan></tspan><tspan id="SvgjsTspan4225" dy="20" x="0"><tspan id="SvgjsTspan4226" style="text-decoration:;fill: rgb(255, 153, 255);">      "openSource"</tspan><tspan id="SvgjsTspan4227" style="text-decoration:;">: </tspan><tspan id="SvgjsTspan4228" style="text-decoration:;fill: rgb(102, 178, 255);">true</tspan><tspan id="SvgjsTspan4229" style="text-decoration:;">,</tspan></tspan><tspan id="SvgjsTspan4230" dy="20" x="0"><tspan id="SvgjsTspan4231" style="text-decoration:;fill: rgb(138, 138, 138);">      ... ...</tspan></tspan><tspan id="SvgjsTspan4232" dy="20" x="0"><tspan id="SvgjsTspan4233" style="text-decoration:;fill: rgb(153, 153, 255);">}</tspan></tspan></text></g></g><g id="SvgjsG4234" transform="translate(99,45.25)"><path id="SvgjsPath4235" d="M0 0L160 0L160 40L0 40Z " stroke="none" fill="none"></path><g id="SvgjsG4236"><text id="SvgjsText4237" font-family="微软雅黑" text-anchor="middle" font-size="15px" width="71" fill="#e5e5e5" font-weight="400" align="middle" font-style="" opacity="1" y="8.25" transform="rotate(0)"><tspan id="SvgjsTspan4238" dy="18" x="80.5"><tspan id="SvgjsTspan4239" style="text-decoration:;font-weight: bold;">JSON文本</tspan></tspan></text></g></g><g id="SvgjsG4240" transform="translate(363.5,25.009478472143712)"><path id="SvgjsPath4241" d="M0 4Q0 0 4 0L342.5 0Q346.5 0 346.5 4L346.5 242.2405215278563Q346.5 246.2405215278563 342.5 246.2405215278563L4 246.2405215278563Q0 246.2405215278563 0 242.2405215278563Z " stroke="none" fill-opacity="1" fill="#34313d"></path><g id="SvgjsG4242"><text id="SvgjsText4243" font-family="黑体" text-anchor="middle" font-size="20px" width="0" fill="#ffffff" font-weight="700" align="middle" font-style="" opacity="1" y="107.62026076392814" transform="rotate(0)"></text></g></g><g id="SvgjsG4244" transform="translate(456.75,41.25)"><path id="SvgjsPath4245" d="M0 0L160 0L160 40L0 40Z " stroke="none" fill="none"></path><g id="SvgjsG4246"><text id="SvgjsText4247" font-family="微软雅黑" text-anchor="middle" font-size="15px" width="64" fill="#e5e5e5" font-weight="400" align="middle" font-style="" opacity="1" y="8.25" transform="rotate(0)"><tspan id="SvgjsTspan4248" dy="18" x="80.5"><tspan id="SvgjsTspan4249" style="text-decoration:;font-weight: bold;">XML文本</tspan></tspan></text></g></g><g id="SvgjsG4250" transform="translate(371.5,91.25)"><path id="SvgjsPath4251" d="M0 4Q0 0 4 0L326.5 0Q330.5 0 330.5 4L330.5 166.48104305571258Q330.5 170.48104305571258 326.5 170.48104305571258L4 170.48104305571258Q0 170.48104305571258 0 166.48104305571258Z " stroke="none" fill-opacity="1" fill="#464353"></path><g id="SvgjsG4252"><text id="SvgjsText4253" font-family="黑体" text-anchor="middle" font-size="20px" width="0" fill="#ffffff" font-weight="700" align="middle" font-style="" opacity="1" y="69.74052152785629" transform="rotate(0)"></text></g></g><g id="SvgjsG4254" transform="translate(384.75,98.99052152785629)"><path id="SvgjsPath4255" d="M0 0L304 0L304 155L0 155Z " stroke="none" fill="none"></path><g id="SvgjsG4256"><text id="SvgjsText4257" font-family="微软雅黑" text-anchor="start" font-size="15px" width="272" fill="#ffffff" font-weight="700" align="middle" font-style="" opacity="1" y="-0.75" transform="rotate(0)"><tspan id="SvgjsTspan4258" dy="18" x="0"><tspan id="SvgjsTspan4259" style="text-decoration:;fill: rgb(153, 153, 255);"> </tspan><tspan id="SvgjsTspan4260" style="text-decoration:;fill: rgb(153, 255, 255);">&lt;</tspan><tspan id="SvgjsTspan4261" style="text-decoration:;fill: rgb(153, 153, 255);">framework</tspan><tspan id="SvgjsTspan4262" style="text-decoration:;fill: rgb(153, 255, 255);">&gt;</tspan></tspan><tspan id="SvgjsTspan4263" dy="18" x="0"><tspan id="SvgjsTspan4264" style="text-decoration:;fill: rgb(153, 204, 255);">      </tspan><tspan id="SvgjsTspan4265" style="text-decoration:;fill: rgb(153, 255, 255);">&lt;</tspan><tspan id="SvgjsTspan4266" style="text-decoration:;fill: rgb(153, 153, 255);">name</tspan><tspan id="SvgjsTspan4267" style="text-decoration:;fill: rgb(153, 255, 255);">&gt;</tspan><tspan id="SvgjsTspan4268" style="text-decoration:;">Forest</tspan><tspan id="SvgjsTspan4269" style="text-decoration:;fill: rgb(153, 255, 255);">&lt;/</tspan><tspan id="SvgjsTspan4270" style="text-decoration:;fill: rgb(153, 153, 255);">name</tspan><tspan id="SvgjsTspan4271" style="text-decoration:;fill: rgb(153, 255, 255);">&gt;</tspan></tspan><tspan id="SvgjsTspan4272" dy="18" x="0"><tspan id="SvgjsTspan4273" style="text-decoration:;fill: rgb(153, 204, 255);">      </tspan><tspan id="SvgjsTspan4274" style="text-decoration:;fill: rgb(153, 255, 255);">&lt;</tspan><tspan id="SvgjsTspan4275" style="text-decoration:;fill: rgb(153, 153, 255);">type</tspan><tspan id="SvgjsTspan4276" style="text-decoration:;fill: rgb(153, 255, 255);">&gt;</tspan></tspan><tspan id="SvgjsTspan4277" dy="18" x="0"><tspan id="SvgjsTspan4278" style="text-decoration:;fill: rgb(255, 153, 204);">             </tspan><tspan id="SvgjsTspan4279" style="text-decoration:;">http framework</tspan></tspan><tspan id="SvgjsTspan4280" dy="18" x="0"><tspan id="SvgjsTspan4281" style="text-decoration:;fill: rgb(153, 204, 255);">      </tspan><tspan id="SvgjsTspan4282" style="text-decoration:;fill: rgb(153, 255, 255);">&lt;/</tspan><tspan id="SvgjsTspan4283" style="text-decoration:;fill: rgb(153, 153, 255);">type</tspan><tspan id="SvgjsTspan4284" style="text-decoration:;fill: rgb(153, 255, 255);">&gt;</tspan></tspan><tspan id="SvgjsTspan4285" dy="18" x="0"><tspan id="SvgjsTspan4286" style="text-decoration:;fill: rgb(153, 204, 255);">      </tspan><tspan id="SvgjsTspan4287" style="text-decoration:;fill: rgb(153, 255, 255);">&lt;</tspan><tspan id="SvgjsTspan4288" style="text-decoration:;fill: rgb(153, 153, 255);">openSource</tspan><tspan id="SvgjsTspan4289" style="text-decoration:;fill: rgb(153, 255, 255);">&gt;</tspan><tspan id="SvgjsTspan4290" style="text-decoration:;">true</tspan><tspan id="SvgjsTspan4291" style="text-decoration:;fill: rgb(153, 255, 255);">&lt;/</tspan><tspan id="SvgjsTspan4292" style="text-decoration:;fill: rgb(153, 153, 255);">openSource</tspan><tspan id="SvgjsTspan4293" style="text-decoration:;fill: rgb(153, 255, 255);">&gt;</tspan></tspan><tspan id="SvgjsTspan4294" dy="18" x="0"><tspan id="SvgjsTspan4295" style="text-decoration:;fill: rgb(138, 138, 138);">      ... ...</tspan></tspan><tspan id="SvgjsTspan4296" dy="18" x="0"><tspan id="SvgjsTspan4297" style="text-decoration:;fill: rgb(153, 255, 255);">&lt;/</tspan><tspan id="SvgjsTspan4298" style="text-decoration:;fill: rgb(153, 153, 255);">framework</tspan><tspan id="SvgjsTspan4299" style="text-decoration:;fill: rgb(153, 255, 255);">&gt;</tspan></tspan></text></g></g><g id="SvgjsG4300" transform="translate(381.39850710329904,552.1297392360718)"><path id="SvgjsPath4301" d="M0 4Q0 0 4 0L304 0Q308 0 308 4L308 242.2405215278563Q308 246.2405215278563 304 246.2405215278563L4 246.2405215278563Q0 246.2405215278563 0 242.2405215278563Z " stroke="none" fill-opacity="1" fill="#34313d"></path><g id="SvgjsG4302"><text id="SvgjsText4303" font-family="黑体" text-anchor="middle" font-size="20px" width="0" fill="#ffffff" font-weight="700" align="middle" font-style="" opacity="1" y="107.62026076392814" transform="rotate(0)"></text></g></g><g id="SvgjsG4304" transform="translate(455.39850710329904,568.75)"><path id="SvgjsPath4305" d="M0 0L160 0L160 40L0 40Z " stroke="none" fill="none"></path><g id="SvgjsG4306"><text id="SvgjsText4307" font-family="微软雅黑" text-anchor="middle" font-size="15px" width="63" fill="#323232" font-weight="400" align="middle" font-style="" opacity="1" y="8.25" transform="rotate(0)"><tspan id="SvgjsTspan4308" dy="18" x="80.5"><tspan id="SvgjsTspan4309" style="text-decoration:;font-weight: bold;fill: rgb(255, 255, 255);">Java对象</tspan></tspan></text></g></g><g id="SvgjsG4310" transform="translate(390.75,620.5094784721437)"><path id="SvgjsPath4311" d="M0 4Q0 0 4 0L288 0Q292 0 292 4L292 166.48104305571258Q292 170.48104305571258 288 170.48104305571258L4 170.48104305571258Q0 170.48104305571258 0 166.48104305571258Z " stroke="none" fill-opacity="1" fill="#464353"></path><g id="SvgjsG4312"><text id="SvgjsText4313" font-family="黑体" text-anchor="middle" font-size="20px" width="0" fill="#ffffff" font-weight="700" align="middle" font-style="" opacity="1" y="69.74052152785629" transform="rotate(0)"></text></g></g><g id="SvgjsG4314" transform="translate(407.25,644.25)"><path id="SvgjsPath4315" d="M0 0L259 0L259 116L0 116Z " stroke="none" fill="none"></path><g id="SvgjsG4316"><text id="SvgjsText4317" font-family="微软雅黑" text-anchor="start" font-size="17px" width="230" fill="#323232" font-weight="400" align="middle" font-style="" opacity="1" y="2.95" transform="rotate(0)"><tspan id="SvgjsTspan4318" dy="21" x="0"><tspan id="SvgjsTspan4319" style="text-decoration:;fill: rgb(229, 229, 229);font-weight: bold;">ResponseData </tspan><tspan id="SvgjsTspan4320" style="text-decoration:;fill: rgb(255, 153, 204);">data </tspan><tspan id="SvgjsTspan4321" style="text-decoration:;font-weight: bold;fill: rgb(255, 255, 255);">=</tspan><tspan id="SvgjsTspan4322" style="text-decoration:;color: rgb(255, 255, 255); font-weight: bold;"> </tspan><tspan id="SvgjsTspan4323" style="text-decoration:;font-weight: bold;fill: rgb(138, 138, 138);">... ... </tspan><tspan id="SvgjsTspan4324" style="text-decoration:;fill: rgb(255, 255, 255);">;</tspan></tspan><tspan id="SvgjsTspan4325" dy="21" x="0"><tspan id="SvgjsTspan4326" style="text-decoration:;font-size: inherit;fill: rgb(255, 153, 204);">data</tspan><tspan id="SvgjsTspan4327" style="text-decoration:;font-size: inherit; color: rgb(255, 255, 255);">.</tspan><tspan id="SvgjsTspan4328" style="text-decoration:;font-size: inherit; font-style: italic;fill: rgb(229, 229, 229);">getName</tspan><tspan id="SvgjsTspan4329" style="text-decoration:;font-size: inherit;font-weight: bold;fill: rgb(255, 255, 255);">()</tspan><tspan id="SvgjsTspan4330" style="text-decoration:;font-size: inherit;fill: rgb(255, 255, 255);">;</tspan></tspan><tspan id="SvgjsTspan4331" dy="21" x="0"><tspan id="SvgjsTspan4332" style="text-decoration:;font-size: inherit;fill: rgb(255, 153, 204);">data</tspan><tspan id="SvgjsTspan4333" style="text-decoration:;font-size: inherit;fill: rgb(255, 255, 255);">.</tspan><tspan id="SvgjsTspan4334" style="text-decoration:;font-size: inherit;font-style: italic;fill: rgb(229, 229, 229);">getType</tspan><tspan id="SvgjsTspan4335" style="text-decoration:;font-size: inherit;font-weight: bold;fill: rgb(255, 255, 255);">()</tspan><tspan id="SvgjsTspan4336" style="text-decoration:;font-size: inherit;fill: rgb(255, 255, 255);">;</tspan></tspan><tspan id="SvgjsTspan4337" dy="21" x="0"><tspan id="SvgjsTspan4338" style="text-decoration:;fill: rgb(255, 153, 204);">data</tspan><tspan id="SvgjsTspan4339" style="text-decoration:;color: rgb(255, 255, 255); font-weight: bold;">.</tspan><tspan id="SvgjsTspan4340" style="text-decoration:;font-style: italic;fill: rgb(229, 229, 229);">isOpenSource</tspan><tspan id="SvgjsTspan4341" style="text-decoration:;fill: rgb(255, 255, 255);font-weight: bold;">()</tspan><tspan id="SvgjsTspan4342" style="text-decoration:;fill: rgb(255, 255, 255);">;</tspan></tspan><tspan id="SvgjsTspan4343" dy="21" x="0"><tspan id="SvgjsTspan4344" style="text-decoration:;font-weight: bold;fill: rgb(138, 138, 138);">... ...</tspan></tspan></text></g></g><g id="SvgjsG4345" transform="translate(718.25,28.129739236071885)"><path id="SvgjsPath4346" d="M0 4Q0 0 4 0L339.75 0Q343.75 0 343.75 4L343.75 239.12026076392812Q343.75 243.12026076392812 339.75 243.12026076392812L4 243.12026076392812Q0 243.12026076392812 0 239.12026076392812Z " stroke="none" fill-opacity="1" fill="#34313d"></path><g id="SvgjsG4347"><text id="SvgjsText4348" font-family="黑体" text-anchor="middle" font-size="20px" width="0" fill="#ffffff" font-weight="700" align="middle" font-style="" opacity="1" y="106.06013038196406" transform="rotate(0)"></text></g></g><g id="SvgjsG4349" transform="translate(811.5,44.37026076392817)"><path id="SvgjsPath4350" d="M0 0L160 0L160 40L0 40Z " stroke="none" fill="none"></path><g id="SvgjsG4351"><text id="SvgjsText4352" font-family="微软雅黑" text-anchor="middle" font-size="15px" width="90" fill="#e5e5e5" font-weight="400" align="middle" font-style="" opacity="1" y="8.25" transform="rotate(0)"><tspan id="SvgjsTspan4353" dy="18" x="80.5"><tspan id="SvgjsTspan4354" style="text-decoration:;font-weight: bold;">其他类型数据</tspan></tspan></text></g></g><g id="SvgjsG4355" transform="translate(724.7184631784165,93.53088754045109)"><path id="SvgjsPath4356" d="M0 4Q0 0 4 0L323.8769841269841 0Q327.8769841269841 0 327.8769841269841 4L327.8769841269841 164.32077590577433Q327.8769841269841 168.32077590577433 323.8769841269841 168.32077590577433L4 168.32077590577433Q0 168.32077590577433 0 164.32077590577433Z " stroke="none" fill-opacity="1" fill="#25c2a0"></path><g id="SvgjsG4357"><text id="SvgjsText4358" font-family="黑体" text-anchor="middle" font-size="20px" width="0" fill="#ffffff" font-weight="700" align="middle" font-style="" opacity="1" y="68.66038795288716" transform="rotate(0)"></text></g></g><g id="SvgjsG4359" transform="translate(862.5,109.85130381964075)"><path id="SvgjsPath4360" d="M0 0L114.5 0L114.5 155L0 155Z " stroke="none" fill="none"></path><g id="SvgjsG4361"><text id="SvgjsText4362" font-family="微软雅黑" text-anchor="start" font-size="15px" width="75" fill="#ffffff" font-weight="700" align="middle" font-style="" opacity="1" y="37.25" transform="rotate(0)"><tspan id="SvgjsTspan4363" dy="18" x="0"><tspan id="SvgjsTspan4364" style="text-decoration:;">二进制</tspan></tspan><tspan id="SvgjsTspan4365" dy="18" x="0"><tspan id="SvgjsTspan4366" style="text-decoration:;">文本</tspan></tspan><tspan id="SvgjsTspan4367" dy="18" x="0"><tspan id="SvgjsTspan4368" style="text-decoration:;">自定义格式</tspan></tspan><tspan id="SvgjsTspan4369" dy="18" x="0"><tspan id="SvgjsTspan4370" style="text-decoration:;fill: rgb(229, 229, 229);">... ...</tspan></tspan></text></g></g><g id="SvgjsG4371" transform="translate(26.5,335.3201119777389)"><path id="SvgjsPath4372" d="M0 4Q0 0 4 0L324 0Q328 0 328 4L328 115.79964566255802Q328 119.79964566255802 324 119.79964566255802L4 119.79964566255802Q0 119.79964566255802 0 115.79964566255802Z " stroke="none" fill-opacity="1" fill="#34313d"></path><g id="SvgjsG4373"><text id="SvgjsText4374" font-family="黑体" text-anchor="middle" font-size="20px" width="0" fill="#ffffff" font-weight="700" align="middle" font-style="" opacity="1" y="44.39982283127901" transform="rotate(0)"></text></g></g><g id="SvgjsG4375" transform="translate(34.42749244713005,342.16097102618636)"><path id="SvgjsPath4376" d="M0 4Q0 0 4 0L308.1450151057402 0Q312.1450151057402 0 312.1450151057402 4L312.1450151057402 102.11792756566324Q312.1450151057402 106.11792756566324 308.1450151057402 106.11792756566324L4 106.11792756566324Q0 106.11792756566324 0 102.11792756566324Z " stroke="none" fill-opacity="1" fill="#464353"></path><g id="SvgjsG4377"><text id="SvgjsText4378" font-family="黑体" text-anchor="middle" font-size="20px" width="103" fill="#ffffff" font-weight="700" align="middle" font-style="" opacity="1" y="37.55896378283162" transform="rotate(0)"><tspan id="SvgjsTspan4379" dy="25" x="157"><tspan id="SvgjsTspan4380" style="text-decoration:;">JSON转换器</tspan></tspan></text></g></g><g id="SvgjsG4381" transform="translate(362.60739224656896,335.320111977739)"><path id="SvgjsPath4382" d="M0 4Q0 0 4 0L341.58222971346015 0Q345.58222971346015 0 345.58222971346015 4L345.58222971346015 115.79964566255795Q345.58222971346015 119.79964566255795 341.58222971346015 119.79964566255795L4 119.79964566255795Q0 119.79964566255795 0 115.79964566255795Z " stroke="none" fill-opacity="1" fill="#34313d"></path><g id="SvgjsG4383"><text id="SvgjsText4384" font-family="黑体" text-anchor="middle" font-size="20px" width="0" fill="#ffffff" font-weight="700" align="middle" font-style="" opacity="1" y="44.399822831278975" transform="rotate(0)"></text></g></g><g id="SvgjsG4385" transform="translate(371.8746223564956,344.73104305571246)"><path id="SvgjsPath4386" d="M0 4Q0 0 4 0L323.0477694936069 0Q327.0477694936069 0 327.0477694936069 4L327.0477694936069 96.97778350661088Q327.0477694936069 100.97778350661088 323.0477694936069 100.97778350661088L4 100.97778350661088Q0 100.97778350661088 0 96.97778350661088Z " stroke="none" fill-opacity="1" fill="#464353"></path><g id="SvgjsG4387"><text id="SvgjsText4388" font-family="黑体" text-anchor="middle" font-size="20px" width="92" fill="#ffffff" font-weight="700" align="middle" font-style="" opacity="1" y="34.98889175330544" transform="rotate(0)"><tspan id="SvgjsTspan4389" dy="25" x="164.5"><tspan id="SvgjsTspan4390" style="text-decoration:;">XML转换器</tspan></tspan></text></g></g><g id="SvgjsG4391" transform="translate(716.4177702865398,333.1898696180359)"><path id="SvgjsPath4392" d="M0 4Q0 0 4 0L341.58222971346015 0Q345.58222971346015 0 345.58222971346015 4L345.58222971346015 120.06013038196404Q345.58222971346015 124.06013038196404 341.58222971346015 124.06013038196404L4 124.06013038196404Q0 124.06013038196404 0 120.06013038196404Z " stroke="none" fill-opacity="1" fill="#34313d"></path><g id="SvgjsG4393"><text id="SvgjsText4394" font-family="黑体" text-anchor="middle" font-size="20px" width="0" fill="#ffffff" font-weight="700" align="middle" font-style="" opacity="1" y="46.53006519098202" transform="rotate(0)"></text></g></g><g id="SvgjsG4395" transform="translate(724.770210883844,340.27401298742035)"><path id="SvgjsPath4396" d="M0 4Q0 0 4 0L324.87734851885176 0Q328.87734851885176 0 328.87734851885176 4L328.87734851885176 105.89184364319506Q328.87734851885176 109.89184364319506 324.87734851885176 109.89184364319506L4 109.89184364319506Q0 109.89184364319506 0 105.89184364319506Z " stroke="none" fill-opacity="1" fill="#25c2a0"></path><g id="SvgjsG4397"><text id="SvgjsText4398" font-family="黑体" text-anchor="middle" font-size="20px" width="122" fill="#ffffff" font-weight="700" align="middle" font-style="" opacity="1" y="39.44592182159753" transform="rotate(0)"><tspan id="SvgjsTspan4399" dy="25" x="165"><tspan id="SvgjsTspan4400" style="text-decoration:;">自定义转换器</tspan></tspan></text></g></g><g id="SvgjsG4401" transform="translate(26.5,281.1560854217573)"><path id="SvgjsPath4402" d="M0 4Q0 0 4 0L1031.5 0Q1035.5 0 1035.5 4L1035.5 41.09391457824273Q1035.5 45.09391457824273 1031.5 45.09391457824273L4 45.09391457824273Q0 45.09391457824273 0 41.09391457824273Z " stroke="none" fill-opacity="1" fill="#464353"></path><g id="SvgjsG4403"><text id="SvgjsText4404" font-family="黑体" text-anchor="middle" font-size="20px" width="124" fill="#ffffff" font-weight="700" align="middle" font-style="" opacity="1" y="7.046957289121366" transform="rotate(0)"><tspan id="SvgjsTspan4405" dy="25" x="518.5"><tspan id="SvgjsTspan4406" style="text-decoration:;">Forest序列化</tspan></tspan></text></g></g><g id="SvgjsG4407" transform="translate(26.5,465.70304271087866)"><path id="SvgjsPath4408" d="M0 4Q0 0 4 0L1031.5 0Q1035.5 0 1035.5 4L1035.5 41.09391457824273Q1035.5 45.09391457824273 1031.5 45.09391457824273L4 45.09391457824273Q0 45.09391457824273 0 41.09391457824273Z " stroke="none" fill-opacity="1" fill="#464353"></path><g id="SvgjsG4409"><text id="SvgjsText4410" font-family="黑体" text-anchor="middle" font-size="20px" width="144" fill="#ffffff" font-weight="700" align="middle" font-style="" opacity="1" y="7.046957289121366" transform="rotate(0)"><tspan id="SvgjsTspan4411" dy="25" x="518.5"><tspan id="SvgjsTspan4412" style="text-decoration:;">Forest反序列化</tspan></tspan></text></g></g><g id="SvgjsG4413" transform="matrix(6.123233995736766e-17,1,-1,6.123233995736766e-17,112.9999999305973,261.55785615231895)"><path id="SvgjsPath4414" d="M0 18.5L18.5 0L18.5 12.21L155.19214902348708 12.21L155.19214902348708 0L173.69214902348708 18.5L155.19214902348708 37L155.19214902348708 24.790000000000003L18.5 24.790000000000003L18.5 37L0 18.5Z " stroke="none" fill-opacity="1" fill="#ffffff"></path><g id="SvgjsG4415"><text id="SvgjsText4416" font-family="黑体" text-anchor="middle" font-size="20px" width="0" fill="#ffffff" font-weight="700" align="middle" font-style="" opacity="1" y="3.000000000000001" transform="rotate(0)"></text></g></g><g id="SvgjsG4417" transform="translate(316.82680792080043,649.25)"><path id="SvgjsPath4418" d="M0 7.92L72.17319207919957 7.92L72.17319207919957 0L84.17319207919957 12L72.17319207919957 24L72.17319207919957 16.080000000000002L0 16.080000000000002L0 7.92Z " stroke="none" fill-opacity="1" fill="#ffffff"></path><g id="SvgjsG4419"><text id="SvgjsText4420" font-family="黑体" text-anchor="middle" font-size="20px" width="0" fill="#ffffff" font-weight="700" align="middle" font-style="" opacity="1" y="-3.5" transform="rotate(0)"></text></g></g><g id="SvgjsG4421" transform="translate(33,566.9905215278562)"><path id="SvgjsPath4422" d="M0 4Q0 0 4 0L283 0Q287 0 287 4L287 217.25947847214377Q287 221.25947847214377 283 221.25947847214377L4 221.25947847214377Q0 221.25947847214377 0 217.25947847214377Z " stroke="none" fill-opacity="1" fill="#34313d"></path><g id="SvgjsG4423"><text id="SvgjsText4424" font-family="黑体" text-anchor="middle" font-size="20px" width="0" fill="#ffffff" font-weight="700" align="middle" font-style="" opacity="1" y="95.12973923607188" transform="rotate(0)"></text></g></g><g id="SvgjsG4425" transform="translate(40.5,617.25)"><path id="SvgjsPath4426" d="M0 0L272 0L272 164L0 164Z " stroke="none" fill-opacity="1" fill="#464353"></path><g id="SvgjsG4427"><text id="SvgjsText4428" font-family="黑体" text-anchor="middle" font-size="20px" width="0" fill="#ffffff" font-weight="700" align="middle" font-style="" opacity="1" y="66.5" transform="rotate(0)"></text></g></g><g id="SvgjsG4429" transform="translate(53.5,637.25)"><path id="SvgjsPath4430" d="M0 0L259 0L259 116L0 116Z " stroke="none" fill="none"></path><g id="SvgjsG4431"><text id="SvgjsText4432" font-family="微软雅黑" text-anchor="start" font-size="16px" width="240" fill="#323232" font-weight="400" align="middle" font-style="" opacity="1" y="-4.4" transform="rotate(0)"><tspan id="SvgjsTspan4433" dy="20" x="0"><tspan id="SvgjsTspan4434" style="text-decoration:;fill: rgb(255, 179, 102);">public class</tspan><tspan id="SvgjsTspan4435" style="text-decoration:;font-weight: bold; fill: rgb(229, 229, 229);"> ResponseData {</tspan></tspan><tspan id="SvgjsTspan4436" dy="20" x="0"><tspan id="SvgjsTspan4437" style="text-decoration:;font-weight: bold; fill: rgb(229, 229, 229);">    </tspan><tspan id="SvgjsTspan4438" style="text-decoration:;fill: rgb(255, 179, 102);">private</tspan><tspan id="SvgjsTspan4439" style="text-decoration:;fill: rgb(229, 229, 229);"> String</tspan><tspan id="SvgjsTspan4440" style="text-decoration:;font-weight: bold; fill: rgb(229, 229, 229);"> </tspan><tspan id="SvgjsTspan4441" style="text-decoration:;fill: rgb(255, 153, 204);">name</tspan><tspan id="SvgjsTspan4442" style="text-decoration:;font-weight: bold; fill: rgb(229, 229, 229);">;</tspan></tspan><tspan id="SvgjsTspan4443" dy="20" x="0"><tspan id="SvgjsTspan4444" style="text-decoration:;font-weight: bold; fill: rgb(229, 229, 229);">    </tspan><tspan id="SvgjsTspan4445" style="text-decoration:;fill: rgb(255, 179, 102);">private </tspan><tspan id="SvgjsTspan4446" style="text-decoration:;fill: rgb(229, 229, 229);">Strng</tspan><tspan id="SvgjsTspan4447" style="text-decoration:;font-weight: bold; fill: rgb(229, 229, 229);"> </tspan><tspan id="SvgjsTspan4448" style="text-decoration:;fill: rgb(255, 153, 204);">type</tspan><tspan id="SvgjsTspan4449" style="text-decoration:;font-weight: bold; fill: rgb(229, 229, 229);">;</tspan></tspan><tspan id="SvgjsTspan4450" dy="20" x="0"><tspan id="SvgjsTspan4451" style="text-decoration:;font-weight: bold; fill: rgb(229, 229, 229);">    </tspan><tspan id="SvgjsTspan4452" style="text-decoration:;fill: rgb(255, 179, 102);">private </tspan><tspan id="SvgjsTspan4453" style="text-decoration:;fill: rgb(229, 229, 229);">Boolean</tspan><tspan id="SvgjsTspan4454" style="text-decoration:;font-weight: bold; fill: rgb(229, 229, 229);"> </tspan><tspan id="SvgjsTspan4455" style="text-decoration:;fill: rgb(255, 153, 204);">openSource</tspan><tspan id="SvgjsTspan4456" style="text-decoration:;font-weight: bold; fill: rgb(229, 229, 229);">;</tspan></tspan><tspan id="SvgjsTspan4457" dy="20" x="0"><tspan id="SvgjsTspan4458" style="text-decoration:;font-weight: bold;fill: rgb(229, 229, 229);">   </tspan><tspan id="SvgjsTspan4459" style="text-decoration:;font-weight: bold;fill: rgb(138, 138, 138);"> ... ...</tspan></tspan><tspan id="SvgjsTspan4460" dy="20" x="0"><tspan id="SvgjsTspan4461" style="text-decoration:;fill: rgb(229, 229, 229);font-weight: bold;">}</tspan></tspan></text></g></g><g id="SvgjsG4462" transform="translate(96.5,577.25)"><path id="SvgjsPath4463" d="M0 0L160 0L160 40L0 40Z " stroke="none" fill="none"></path><g id="SvgjsG4464"><text id="SvgjsText4465" font-family="微软雅黑" text-anchor="middle" font-size="15px" width="83" fill="#323232" font-weight="400" align="middle" font-style="" opacity="1" y="8.25" transform="rotate(0)"><tspan id="SvgjsTspan4466" dy="18" x="80.5"><tspan id="SvgjsTspan4467" style="text-decoration:;font-weight: bold;fill: rgb(255, 255, 255);">自定义Class</tspan></tspan></text></g></g><g id="SvgjsG4468" transform="translate(742.4177702865398,562.4905215278563)"><path id="SvgjsPath4469" d="M0 4Q0 0 4 0L279.43467031076375 0Q283.43467031076375 0 283.43467031076375 4L283.43467031076375 226.25947847214366Q283.43467031076375 230.25947847214366 279.43467031076375 230.25947847214366L4 230.25947847214366Q0 230.25947847214366 0 226.25947847214366Z " stroke="none" fill-opacity="1" fill="#34313d"></path><g id="SvgjsG4470"><text id="SvgjsText4471" font-family="黑体" text-anchor="middle" font-size="20px" width="0" fill="#ffffff" font-weight="700" align="middle" font-style="" opacity="1" y="99.62973923607183" transform="rotate(0)"></text></g></g><g id="SvgjsG4472" transform="translate(750.2702108838439,616.265032595491)"><path id="SvgjsPath4473" d="M6.810490428370049 0L260.9192986877856 0L267.72978911615564 16.21545340088107L260.9192986877856 32.43090680176214L6.810490428370049 32.43090680176214L0 16.21545340088107L6.810490428370049 0Z " stroke="none" fill-opacity="1" fill="#9999ff"></path><g id="SvgjsG4474"><text id="SvgjsText4475" font-family="微软雅黑" text-anchor="start" font-size="18px" width="135" fill="#ffffff" font-weight="700" align="middle" font-style="" opacity="1" y="2.015453400881071" transform="rotate(0)"><tspan id="SvgjsTspan4476" dy="22" x="10"><tspan id="SvgjsTspan4477" style="text-decoration:;font-weight: normal;">    name:</tspan><tspan id="SvgjsTspan4478" style="text-decoration:;"> Forest</tspan></tspan></text></g></g><g id="SvgjsG4479" transform="translate(750.2702108838439,661.5872559421692)"><path id="SvgjsPath4480" d="M6.810490428370049 0L260.9192986877856 0L267.72978911615564 16.21545340088107L260.9192986877856 32.43090680176214L6.810490428370049 32.43090680176214L0 16.21545340088107L6.810490428370049 0Z " stroke="none" fill-opacity="1" fill="#9999ff"></path><g id="SvgjsG4481"><text id="SvgjsText4482" font-family="微软雅黑" text-anchor="start" font-size="18px" width="212" fill="#ffffff" font-weight="700" align="middle" font-style="" opacity="1" y="2.015453400881071" transform="rotate(0)"><tspan id="SvgjsTspan4483" dy="22" x="10"><tspan id="SvgjsTspan4484" style="text-decoration:;font-weight: normal;">    type:</tspan><tspan id="SvgjsTspan4485" style="text-decoration:;"> http framework</tspan></tspan></text></g></g><g id="SvgjsG4486" transform="translate(750.2702108838438,705.9269514003628)"><path id="SvgjsPath4487" d="M6.810490428370049 0L260.9192986877856 0L267.72978911615564 16.21545340088107L260.9192986877856 32.43090680176214L6.810490428370049 32.43090680176214L0 16.21545340088107L6.810490428370049 0Z " stroke="none" fill-opacity="1" fill="#9999ff"></path><g id="SvgjsG4488"><text id="SvgjsText4489" font-family="微软雅黑" text-anchor="start" font-size="18px" width="172" fill="#ffffff" font-weight="700" align="middle" font-style="" opacity="1" y="2.015453400881071" transform="rotate(0)"><tspan id="SvgjsTspan4490" dy="22" x="10"><tspan id="SvgjsTspan4491" style="text-decoration:;font-weight: normal;">    openSource:</tspan><tspan id="SvgjsTspan4492" style="text-decoration:;"> true</tspan></tspan></text></g></g><g id="SvgjsG4493" transform="translate(654,654.25)"><path id="SvgjsPath4494" d="M0 7.92L76.41777028653985 7.92L76.41777028653985 0L88.41777028653985 12L76.41777028653985 24L76.41777028653985 16.080000000000002L0 16.080000000000002L0 7.92Z " stroke="none" fill-opacity="1" fill="#ffffff"></path><g id="SvgjsG4495"><text id="SvgjsText4496" font-family="黑体" text-anchor="middle" font-size="20px" width="0" fill="#ffffff" font-weight="700" align="middle" font-style="" opacity="1" y="-3.5" transform="rotate(0)"></text></g></g><g id="SvgjsG4497" transform="translate(750.2702108838438,749.8040606027469)"><path id="SvgjsPath4498" d="M6.810490428370049 0L260.9192986877856 0L267.72978911615564 16.21545340088107L260.9192986877856 32.43090680176214L6.810490428370049 32.43090680176214L0 16.21545340088107L6.810490428370049 0Z " stroke="none" fill-opacity="1" fill="#9999ff"></path><g id="SvgjsG4499"><text id="SvgjsText4500" font-family="微软雅黑" text-anchor="start" font-size="20px" width="64" fill="#ffffff" font-weight="700" align="middle" font-style="" opacity="1" y="0.7154534008810707" transform="rotate(0)"><tspan id="SvgjsTspan4501" dy="25" x="10"><tspan id="SvgjsTspan4502" style="text-decoration:;">    ... ...</tspan></tspan></text></g></g><g id="SvgjsG4503" transform="translate(615.398507103299,310.75000000000006)"><path id="SvgjsPath4504" d="M23.54329801979992 0L47.08659603959984 23.54329801979992L31.548019346531895 23.54329801979992L31.548019346531895 241.37973923607177L15.538576693067949 241.37973923607177L15.538576693067949 23.54329801979992L0 23.54329801979992L23.54329801979992 0Z " stroke="none" fill-opacity="1" fill="#ffffff"></path><g id="SvgjsG4505"><text id="SvgjsText4506" font-family="黑体" text-anchor="middle" font-size="20px" width="0" fill="#ffffff" font-weight="700" align="middle" font-style="" opacity="1" y="117.25885657983946" transform="rotate(0)"></text></g></g><g id="SvgjsG4507" transform="translate(435.5,507.25)"><path id="SvgjsPath4508" d="M13.695 0L27.805000000000003 0L27.805000000000003 29.25L41.5 29.25L20.75 50L0 29.25L13.695 29.25L13.695 0Z " stroke="none" fill-opacity="1" fill="#ffffff"></path><g id="SvgjsG4509"><text id="SvgjsText4510" font-family="黑体" text-anchor="middle" font-size="20px" width="0" fill="#ffffff" font-weight="700" align="middle" font-style="" opacity="1" y="7" transform="rotate(0)"></text></g></g><g id="SvgjsG4511" transform="matrix(6.123233995736766e-17,1,-1,6.123233995736766e-17,449.00000517580605,257.90392548825645)"><path id="SvgjsPath4512" d="M0 18.5L18.5 0L18.5 12.21L155.19214902348708 12.21L155.19214902348708 0L173.69214902348708 18.5L155.19214902348708 37L155.19214902348708 24.790000000000003L18.5 24.790000000000003L18.5 37L0 18.5Z " stroke="none" fill-opacity="1" fill="#ffffff"></path><g id="SvgjsG4513"><text id="SvgjsText4514" font-family="黑体" text-anchor="middle" font-size="20px" width="0" fill="#ffffff" font-weight="700" align="middle" font-style="" opacity="1" y="3.000000000000001" transform="rotate(0)"></text></g></g><g id="SvgjsG4515" transform="matrix(6.123233995736766e-17,1,-1,6.123233995736766e-17,802.000005175806,257.90392548825645)"><path id="SvgjsPath4516" d="M0 18.5L18.5 0L18.5 12.21L155.19214902348708 12.21L155.19214902348708 0L173.69214902348708 18.5L155.19214902348708 37L155.19214902348708 24.790000000000003L18.5 24.790000000000003L18.5 37L0 18.5Z " stroke="none" fill-opacity="1" fill="#ffffff"></path><g id="SvgjsG4517"><text id="SvgjsText4518" font-family="黑体" text-anchor="middle" font-size="20px" width="0" fill="#ffffff" font-weight="700" align="middle" font-style="" opacity="1" y="3.000000000000001" transform="rotate(0)"></text></g></g><g id="SvgjsG4519" transform="translate(804.1351054419215,568.75)"><path id="SvgjsPath4520" d="M0 0L160 0L160 40L0 40Z " stroke="none" fill="none"></path><g id="SvgjsG4521"><text id="SvgjsText4522" font-family="微软雅黑" text-anchor="middle" font-size="15px" width="75" fill="#323232" font-weight="400" align="middle" font-style="" opacity="1" y="8.25" transform="rotate(0)"><tspan id="SvgjsTspan4523" dy="18" x="80.5"><tspan id="SvgjsTspan4524" style="text-decoration:;fill: rgb(255, 255, 255);font-weight: bold;">对象属性值</tspan></tspan></text></g></g></svg>