<svg xmlns="http://www.w3.org/2000/svg" viewBox="0 0 2628.51 1203.01"><defs><style>.cls-1{fill:#464353;}.cls-2,.cls-5{fill:#fff;}.cls-3{fill:#25c2a0;}.cls-4{fill:none;}.cls-5{font-size:60px;font-family:MicrosoftYaHei-Bold, Microsoft YaHei;font-weight:700;}</style></defs><title>no-proxy</title><g id="图层_2" data-name="图层 2"><g id="图层_2-2" data-name="图层 2"><rect class="cls-1" x="90.11" y="103.75" width="782.87" height="1005.97"/><rect class="cls-1" x="1742.57" y="103.75" width="782.87" height="1005.97"/><path class="cls-2" d="M943.59,551.43l79.2-79.21a16.22,16.22,0,0,0,0-22.25l-79.2-79.86a15.74,15.74,0,0,0-22.26,22.25l52.37,52.37H821.18a15.93,15.93,0,0,0-15.71,15.71c0,9.16,7.2,16.36,15.71,16.36H973.7l-52.37,52.37a15.81,15.81,0,0,0,0,22.26c6.55,6.54,16.36,6.54,22.26,0Z"/><path class="cls-2" d="M1769.82,541l79.2-79.21a16.22,16.22,0,0,0,0-22.25l-79.2-79.86a15.74,15.74,0,0,0-22.26,22.25l52.37,52.37H1647.41A15.93,15.93,0,0,0,1631.7,450c0,9.16,7.2,16.36,15.71,16.36h152.52l-52.37,52.37a15.81,15.81,0,0,0,0,22.26c6.55,6.54,16.37,6.54,22.26,0Z"/><path class="cls-3" d="M1208.18,369.08s13.72-64,86.88-68.57,91.45,45.71,91.45,45.71,41.16-13.72,73.16,18.29c22.87,22.86,18.29,54.87,18.29,54.87s50.32,9.15,50.32,59.45-45.73,59.45-45.73,59.45H1194.47s-75.45-14.87-64-96C1139.59,373.68,1208.18,369.08,1208.18,369.08Z"/></g><g id="图层_1-2" data-name="图层 1"><rect class="cls-4" width="2628.51" height="1203.01"/><path class="cls-3" d="M616.64,334.66h-55.5a33.09,33.09,0,0,0-33,33V490.83a33.09,33.09,0,0,0,33,33h55.5a33.09,33.09,0,0,0,33-33V367.64A33.09,33.09,0,0,0,616.64,334.66Zm14.22,33V483.49h-84V367.64a20.63,20.63,0,0,1,.32-3.12h83.16A11.37,11.37,0,0,1,630.86,367.64Zm-115.06,128H483V471.45h33V441.12H377.6v-136a4,4,0,0,1,3.91-3.91H566a4,4,0,0,1,3.9,3.91v22.2h18.76V305A22.68,22.68,0,0,0,566,282.29H381.51A22.69,22.69,0,0,0,358.84,305V448.78a22.69,22.69,0,0,0,22.67,22.67h82.86v24.23H431.54a9.38,9.38,0,1,0,0,18.76H515.8a9.38,9.38,0,0,0,0-18.76Z"/><path class="cls-3" d="M2007.94,273.06h229.71A20.89,20.89,0,0,1,2258.54,294V523.66a20.89,20.89,0,0,1-20.89,20.89H2007.94a20.89,20.89,0,0,1-20.89-20.89V294A20.89,20.89,0,0,1,2007.94,273.06Zm0,20.89V523.66h229.71V294Zm0,62.65h229.71v20.88H2007.94Zm0,83.53h229.71V461H2007.94Zm20.88-125.3h20.88v20.88h-20.88Zm0,83.53h20.88v20.89h-20.88Zm0,83.54h20.88v20.88h-20.88Zm104.42-167.07h83.53v20.88h-83.53Zm0,83.53h83.53v20.89h-83.53Zm0,83.54h83.53v20.88h-83.53Z"/><text class="cls-5" transform="translate(393.05 702.97)">客户端</text><text class="cls-5" transform="translate(1230.08 703.07)">互联网</text><text class="cls-5" transform="translate(1965.93 729.95)">原始服务器</text></g></g></svg>