<svg xmlns="http://www.w3.org/2000/svg" xmlns:xlink="http://www.w3.org/1999/xlink" fill="none" version="1.1" width="831" height="573" viewBox="0 0 831 573"><g style="mix-blend-mode:passthrough"><g><g style="mix-blend-mode:passthrough"><rect x="0" y="69" width="269" height="435" rx="0" fill="#5E5A6F" fill-opacity="1"/></g><g style="mix-blend-mode:passthrough"><rect x="281" y="69" width="269" height="435" rx="0" fill="#5E5A6F" fill-opacity="1"/></g><g style="mix-blend-mode:passthrough"><rect x="562" y="69" width="269" height="435" rx="0" fill="#5E5A6F" fill-opacity="1"/></g><g style="mix-blend-mode:passthrough"><rect x="24" y="190" width="220" height="58" rx="0" fill="#439558" fill-opacity="1"/><rect x="22.5" y="188.5" width="223" height="61" rx="0" fill-opacity="0" stroke-opacity="1" stroke="#FFFFFF" stroke-width="3" fill="none" stroke-dasharray=""/></g><g style="mix-blend-mode:passthrough"><rect x="305" y="190" width="220" height="58" rx="0" fill="#439558" fill-opacity="1"/><rect x="303.5" y="188.5" width="223" height="61" rx="0" fill-opacity="0" stroke-opacity="1" stroke="#FFFFFF" stroke-width="3" fill="none" stroke-dasharray=""/></g><g style="mix-blend-mode:passthrough"><rect x="305" y="286" width="220" height="58" rx="0" fill="#439558" fill-opacity="1"/><rect x="303.5" y="284.5" width="223" height="61" rx="0" fill-opacity="0" stroke-opacity="1" stroke="#FFFFFF" stroke-width="3" fill="none" stroke-dasharray=""/></g><g style="mix-blend-mode:passthrough"><rect x="586" y="190" width="220" height="58" rx="0" fill="#439558" fill-opacity="1"/><rect x="584.5" y="188.5" width="223" height="61" rx="0" fill-opacity="0" stroke-opacity="1" stroke="#FFFFFF" stroke-width="3" fill="none" stroke-dasharray=""/></g><g style="mix-blend-mode:passthrough"><rect x="24" y="286" width="220" height="58" rx="0" fill="#439558" fill-opacity="1"/><rect x="22.5" y="284.5" width="223" height="61" rx="0" fill-opacity="0" stroke-opacity="1" stroke="#FFFFFF" stroke-width="3" fill="none" stroke-dasharray=""/></g><g style="mix-blend-mode:passthrough"><rect x="305" y="382" width="220" height="58" rx="0" fill="#439558" fill-opacity="1"/><rect x="303.5" y="380.5" width="223" height="61" rx="0" fill-opacity="0" stroke-opacity="1" stroke="#FFFFFF" stroke-width="3" fill="none" stroke-dasharray=""/></g><g style="mix-blend-mode:passthrough"><rect x="586" y="286" width="220" height="58" rx="0" fill="#439558" fill-opacity="1"/><rect x="584.5" y="284.5" width="223" height="61" rx="0" fill-opacity="0" stroke-opacity="1" stroke="#FFFFFF" stroke-width="3" fill="none" stroke-dasharray=""/></g><g style="mix-blend-mode:passthrough"><rect x="26" y="382" width="220" height="58" rx="0" fill="#439558" fill-opacity="1"/><rect x="24.5" y="380.5" width="223" height="61" rx="0" fill-opacity="0" stroke-opacity="1" stroke="#FFFFFF" stroke-width="3" fill="none" stroke-dasharray=""/></g><g style="mix-blend-mode:passthrough"><rect x="588" y="382" width="220" height="58" rx="0" fill="#439558" fill-opacity="1"/><rect x="586.5" y="380.5" width="223" height="61" rx="0" fill-opacity="0" stroke-opacity="1" stroke="#FFFFFF" stroke-width="3" fill="none" stroke-dasharray=""/></g><g style="mix-blend-mode:passthrough"><path d="M44.9583,212.18392L39.4766,212.18392L39.4766,216.2139L44.5417,216.2139L44.5417,218.8506L39.5417,218.8506L39.5417,224.9639L36.20834,224.9639L36.20834,209.5472L44.9583,209.5472L44.9583,212.18392ZM46.625,219.3844Q46.625,216.7412,48.2331,215.2308Q49.8477,213.71387,52.569,213.71387Q55.199200000000005,213.71387,56.7422,215.2048Q58.2917,216.6891,58.2917,219.2021Q58.2917,221.8389,56.7031,223.4014Q55.1211,224.9639,52.4063,224.9639Q49.75,224.9639,48.1875,223.4665Q46.625,221.9691,46.625,219.3844ZM49.9583,219.3454Q49.9583,222.542,52.510400000000004,222.542Q54.9583,222.542,54.9583,219.26069999999999Q54.9583,216.13569999999999,52.490899999999996,216.13569999999999Q51.293,216.13569999999999,50.6224,216.9756Q49.9583,217.8154,49.9583,219.3454ZM67.45830000000001,217.0472Q66.8789,216.6305,66.0521,216.6305Q64.9779,216.6305,64.3398,217.4574Q63.7083,218.2842,63.7083,219.7295L63.7083,224.9639L60.375,224.9639L60.375,213.71387L63.7083,213.71387L63.7083,216.13569999999999L63.7474,216.13569999999999Q64.5352,213.71387,66.6055,213.71387Q67.1654,213.71387,67.45830000000001,213.85059L67.45830000000001,217.0472ZM78.29169999999999,220.2699L71.625,220.2699Q71.7813,222.69819999999999,74.48310000000001,222.69819999999999Q76.16929999999999,222.69819999999999,77.45830000000001,221.8649L77.45830000000001,224.1436Q76.0065,224.9639,73.6497,224.9639Q71.11070000000001,224.9639,69.6979,223.5186Q68.29169999999999,222.07319999999999,68.29169999999999,219.4951Q68.29169999999999,216.9235,69.77600000000001,215.3219Q71.26689999999999,213.71387,73.5195,213.71387Q75.7656,213.71387,77.0286,215.1071Q78.29169999999999,216.5003,78.29169999999999,218.9287L78.29169999999999,220.2699ZM75.375,218.2972Q75.375,215.8753,73.61070000000001,215.8753Q72.875,215.8753,72.3151,216.5394Q71.7552,217.2035,71.612,218.2972L75.375,218.2972ZM80.375,221.9495Q81.957,222.7829,83.4674,222.7829Q85.375,222.7829,85.375,221.76069999999999Q85.375,221.0316,83.806,220.5433Q81.8398,219.9248,81.10419999999999,219.1631Q80.375,218.3949,80.375,217.0928Q80.375,215.51069999999999,81.58590000000001,214.6123Q82.80340000000001,213.71387,84.7695,213.71387Q86.1628,213.71387,87.45830000000001,214.1696L87.45830000000001,216.7282Q86.2799,215.8949,84.86070000000001,215.8949Q84.15100000000001,215.8949,83.7214,216.1423Q83.29169999999999,216.3831,83.29169999999999,216.7868Q83.29169999999999,217.4639,84.63929999999999,217.8805Q86.0781,218.3753,86.80080000000001,218.7855Q87.5299,219.1891,87.9076,219.8532Q88.29169999999999,220.5173,88.29169999999999,221.3896Q88.29169999999999,223.0889,86.9896,224.0264Q85.694,224.9639,83.52600000000001,224.9639Q81.82679999999999,224.9639,80.375,224.4365L80.375,221.9495ZM97.0417,224.5602Q96.2995,224.9639,94.7891,224.9639Q91.20830000000001,224.9639,91.20830000000001,221.2725L91.20830000000001,216.0706L89.54169999999999,216.0706L89.54169999999999,213.71387L91.20830000000001,213.71387L91.20830000000001,211.2985L94.5417,210.38053L94.5417,213.71387L97.0417,213.71387L97.0417,216.0706L94.5417,216.0706L94.5417,220.7516Q94.5417,222.529,95.9284,222.529Q96.4688,222.529,97.0417,222.1123L97.0417,224.5602ZM109.9583,224.1826Q108.3177,224.9639,105.681,224.9639Q102.2825,224.9639,100.2839,222.9521Q98.2917,220.9339,98.2917,217.5745Q98.2917,214.0394,100.5182,211.79329Q102.7448,209.5472,106.2669,209.5472Q108.474,209.5472,109.9583,210.11361L109.9583,213.1735Q108.4284,212.34017,106.4883,212.34017Q104.2747,212.34017,102.9466,213.72689Q101.625,215.1071,101.625,217.3402Q101.625,219.5146,102.8815,220.8428Q104.138,222.1709,106.2865,222.1709Q108.2982,222.1709,109.9583,221.3376L109.9583,224.1826ZM111.625,219.3844Q111.625,216.7412,113.2331,215.2308Q114.8477,213.71387,117.569,213.71387Q120.1992,213.71387,121.7422,215.2048Q123.2917,216.6891,123.2917,219.2021Q123.2917,221.8389,121.7031,223.4014Q120.1211,224.9639,117.4062,224.9639Q114.75,224.9639,113.1875,223.4665Q111.625,221.9691,111.625,219.3844ZM114.9583,219.3454Q114.9583,222.542,117.5104,222.542Q119.9583,222.542,119.9583,219.26069999999999Q119.9583,216.13569999999999,117.4909,216.13569999999999Q116.293,216.13569999999999,115.6224,216.9756Q114.9583,217.8154,114.9583,219.3454ZM135.792,224.9639L132.458,224.9639L132.458,218.8115Q132.458,216.13569999999999,130.68099999999998,216.13569999999999Q129.83499999999998,216.13569999999999,129.268,216.8519Q128.708,217.5615,128.708,218.6683L128.708,224.9639L125.375,224.9639L125.375,213.71387L128.708,213.71387L128.708,215.6995L128.747,215.6995Q129.926,213.71387,132.211,213.71387Q135.792,213.71387,135.792,218.2386L135.792,224.9639ZM145.375,211.56543Q144.724,211.14876,144.138,211.14876Q142.49099999999999,211.14876,142.49099999999999,212.67871L142.49099999999999,213.71387L144.958,213.71387L144.958,216.0706L142.458,216.0706L142.458,224.9639L139.125,224.9639L139.125,216.0706L137.458,216.0706L137.458,213.71387L139.29399999999998,213.71387L139.29399999999998,212.43783Q139.29399999999998,210.74512,140.512,209.72949Q141.72899999999998,208.71387,143.708,208.71387Q144.724,208.71387,145.375,208.92871L145.375,211.56543ZM146.208,210.34798Q146.208,209.62533,146.72899999999998,209.1696Q147.257,208.71387,148.077,208.71387Q148.917,208.71387,149.437,209.18262Q149.958,209.64486,149.958,210.34798Q149.958,211.05762,149.424,211.53288Q148.897,212.00814,148.077,212.00814Q147.26999999999998,212.00814,146.736,211.53288Q146.208,211.05111,146.208,210.34798ZM146.625,224.9639L146.625,213.71387L149.958,213.71387L149.958,224.9639L146.625,224.9639ZM162.875,223.5511Q162.875,226.637,161.111,228.2972Q159.346,229.9639,156.033,229.9639Q153.786,229.9639,152.458,229.3649L152.458,226.7868Q154.164,227.6201,155.89600000000002,227.6201Q157.608,227.6201,158.572,226.6761Q159.542,225.7321,159.542,224.0589L159.542,223.1214L159.496,223.1214Q158.357,224.9639,156.104,224.9639Q154.066,224.9639,152.84199999999998,223.5186Q151.625,222.07319999999999,151.625,219.6514Q151.625,216.943,152.973,215.3285Q154.32,213.71387,156.514,213.71387Q158.5,213.71387,159.496,215.2699L159.542,215.2699L159.542,213.71387L162.875,213.71387L162.875,223.5511ZM159.574,218.6553Q159.574,217.5941,158.943,216.8649Q158.318,216.13569999999999,157.367,216.13569999999999Q156.254,216.13569999999999,155.603,217.0277Q154.958,217.9196,154.958,219.5342Q154.958,220.9339,155.577,221.7412Q156.202,222.542,157.23,222.542Q158.272,222.542,158.923,221.7217Q159.574,220.9014,159.574,219.5928L159.574,218.6553ZM175.792,224.9639L172.458,224.9639L172.458,223.0498L172.413,223.0498Q171.208,224.9639,169.118,224.9639Q165.375,224.9639,165.375,220.335L165.375,213.71387L168.708,213.71387L168.708,220.068Q168.708,222.542,170.499,222.542Q171.391,222.542,171.924,221.8649Q172.458,221.1878,172.458,220.029L172.458,213.71387L175.792,213.71387L175.792,224.9639ZM185.375,217.0472Q184.796,216.6305,183.969,216.6305Q182.895,216.6305,182.257,217.4574Q181.625,218.2842,181.625,219.7295L181.625,224.9639L178.292,224.9639L178.292,213.71387L181.625,213.71387L181.625,216.13569999999999L181.664,216.13569999999999Q182.452,213.71387,184.522,213.71387Q185.082,213.71387,185.375,213.85059L185.375,217.0472ZM187.458,214.6514Q188.168,214.2347,189.359,213.97428Q190.551,213.71387,191.391,213.71387Q195.792,213.71387,195.792,218.3298L195.792,224.9639L192.875,224.9639L192.875,223.18L192.836,223.18Q191.729,224.9639,189.594,224.9639Q188.057,224.9639,187.133,224.1175Q186.208,223.2646,186.208,221.8063Q186.208,218.792,190.036,218.2972L193.109,217.874Q193.109,215.8949,191.13,215.8949Q189.184,215.8949,187.458,217.1449L187.458,214.6514ZM190.941,219.9639Q189.125,220.1787,189.125,221.4222Q189.125,221.9951,189.561,222.3467Q190.004,222.69819999999999,190.753,222.69819999999999Q191.781,222.69819999999999,192.445,222.0537Q193.109,221.4027,193.109,220.4391L193.109,219.7035L190.941,219.9639ZM204.958,224.5602Q204.216,224.9639,202.706,224.9639Q199.125,224.9639,199.125,221.2725L199.125,216.0706L197.458,216.0706L197.458,213.71387L199.125,213.71387L199.125,211.2985L202.458,210.38053L202.458,213.71387L204.958,213.71387L204.958,216.0706L202.458,216.0706L202.458,220.7516Q202.458,222.529,203.845,222.529Q204.385,222.529,204.958,222.1123L204.958,224.5602ZM206.625,210.34798Q206.625,209.62533,207.146,209.1696Q207.673,208.71387,208.493,208.71387Q209.333,208.71387,209.854,209.18262Q210.375,209.64486,210.375,210.34798Q210.375,211.05762,209.841,211.53288Q209.314,212.00814,208.493,212.00814Q207.686,212.00814,207.152,211.53288Q206.625,211.05111,206.625,210.34798ZM207.042,224.9639L207.042,213.71387L210.375,213.71387L210.375,224.9639L207.042,224.9639ZM212.042,219.3844Q212.042,216.7412,213.65,215.2308Q215.264,213.71387,217.986,213.71387Q220.616,213.71387,222.159,215.2048Q223.708,216.6891,223.708,219.2021Q223.708,221.8389,222.12,223.4014Q220.538,224.9639,217.823,224.9639Q215.167,224.9639,213.604,223.4665Q212.042,221.9691,212.042,219.3844ZM215.375,219.3454Q215.375,222.542,217.927,222.542Q220.375,222.542,220.375,219.26069999999999Q220.375,216.13569999999999,217.908,216.13569999999999Q216.71,216.13569999999999,216.039,216.9756Q215.375,217.8154,215.375,219.3454ZM236.208,224.9639L232.875,224.9639L232.875,218.8115Q232.875,216.13569999999999,231.098,216.13569999999999Q230.251,216.13569999999999,229.685,216.8519Q229.125,217.5615,229.125,218.6683L229.125,224.9639L225.792,224.9639L225.792,213.71387L229.125,213.71387L229.125,215.6995L229.164,215.6995Q230.342,213.71387,232.628,213.71387Q236.208,213.71387,236.208,218.2386L236.208,224.9639Z" fill="#FFFFFF" fill-opacity="1"/></g><g style="mix-blend-mode:passthrough"><path d="M356.4792,213.90918Q355.9583,218.4079,355.9583,219.6839Q355.9583,221.2139,356.8307,221.2139Q357.7292,221.2139,358.3021,220.068Q358.875,218.9157,358.875,217.1123Q358.875,214.5798,357.3451,212.96517Q355.81510000000003,211.34408,353.0872,211.34408Q350.2031,211.34408,348.2891,213.45996Q346.375,215.5693,346.375,218.5837Q346.375,221.5589,348.1393,223.2646Q349.91020000000003,224.9639,352.9505,224.9639Q355.2878,224.9639,357.2083,224.1305L357.2083,226.012Q355.4245,226.76069999999999,352.5859,226.76069999999999Q348.6992,226.76069999999999,346.2839,224.5277Q343.875,222.2881,343.875,218.5576Q343.875,214.7295,346.4271,212.13835Q348.9792,209.5472,353.00260000000003,209.5472Q356.75260000000003,209.5472,359.0638,211.611Q361.375,213.66829,361.375,216.9951Q361.375,219.723,359.91020000000003,221.3766Q358.4518,223.0303,356.30989999999997,223.0303Q355.2617,223.0303,354.5716,222.4704Q353.8815,221.904,353.8425,220.9469L353.7708,220.9469Q353.0677,223.0042,351.1537,223.0042Q349.74739999999997,223.0042,348.8945,221.9626Q348.0417,220.9144,348.0417,219.0785Q348.0417,216.7021,349.2266,215.2113Q350.4115,213.71387,352.1172,213.71387Q353.66020000000003,213.71387,354.0378,214.9769L354.0899,214.9769Q354.1484,214.723,354.2396,214.4561Q354.3372,214.1956,354.3958,213.90918L356.4792,213.90918ZM350.5417,219.0654Q350.5417,220.0615,350.9063,220.641Q351.2708,221.2139,351.8958,221.2139Q352.8138,221.2139,353.3412,220.1396Q353.875,219.0654,353.875,217.3011Q353.875,216.4352,353.5104,215.96Q353.1458,215.4847,352.5339,215.4847Q351.668,215.4847,351.1016,216.5394Q350.5417,217.5876,350.5417,219.0654ZM364.2917,224.9639L364.2917,209.5472L369.8255,209.5472Q372.3711,209.5472,373.7448,210.50423Q375.125,211.45475,375.125,213.14095Q375.125,214.391,374.1875,215.335Q373.2565,216.2725,371.8438,216.6305L371.8438,216.6696Q373.5039,216.8714,374.5195,217.8675Q375.5417,218.8636,375.5417,220.374Q375.5417,222.4769,374.0573,223.7204Q372.5794,224.9639,370.0078,224.9639L364.2917,224.9639ZM367.625,211.94954L367.625,215.7972L369.0964,215.7972Q370.1576,215.7972,370.763,215.2568Q371.375,214.71,371.375,213.73991Q371.375,211.94954,368.94010000000003,211.94954L367.625,211.94954ZM367.625,218.2321L367.625,222.5615L369.5716,222.5615Q370.8086,222.5615,371.5052,221.9691Q372.2083,221.3766,372.2083,220.3285Q372.2083,219.3324,371.5117,218.7855Q370.8216,218.2321,369.5391,218.2321L367.625,218.2321ZM378.4583,214.6514Q379.168,214.2347,380.3594,213.97428Q381.5508,213.71387,382.3906,213.71387Q386.7917,213.71387,386.7917,218.3298L386.7917,224.9639L383.875,224.9639L383.875,223.18L383.8359,223.18Q382.7292,224.9639,380.5938,224.9639Q379.0573,224.9639,378.1328,224.1175Q377.2083,223.2646,377.2083,221.8063Q377.2083,218.792,381.0365,218.2972L384.1094,217.874Q384.1094,215.8949,382.1302,215.8949Q380.1836,215.8949,378.4583,217.1449L378.4583,214.6514ZM381.9414,219.9639Q380.125,220.1787,380.125,221.4222Q380.125,221.9951,380.5612,222.3467Q381.0039,222.69819999999999,381.75260000000003,222.69819999999999Q382.7813,222.69819999999999,383.4453,222.0537Q384.1094,221.4027,384.1094,220.4391L384.1094,219.7035L381.9414,219.9639ZM389.2917,221.9495Q390.8737,222.7829,392.3841,222.7829Q394.2917,222.7829,394.2917,221.76069999999999Q394.2917,221.0316,392.72270000000003,220.5433Q390.7565,219.9248,390.0208,219.1631Q389.2917,218.3949,389.2917,217.0928Q389.2917,215.51069999999999,390.50260000000003,214.6123Q391.7201,213.71387,393.6862,213.71387Q395.0794,213.71387,396.375,214.1696L396.375,216.7282Q395.1966,215.8949,393.7774,215.8949Q393.0677,215.8949,392.63800000000003,216.1423Q392.2083,216.3831,392.2083,216.7868Q392.2083,217.4639,393.556,217.8805Q394.9948,218.3753,395.7175,218.7855Q396.4466,219.1891,396.8242,219.8532Q397.2083,220.5173,397.2083,221.3896Q397.2083,223.0889,395.9063,224.0264Q394.6107,224.9639,392.4427,224.9639Q390.7435,224.9639,389.2917,224.4365L389.2917,221.9495ZM408.875,220.2699L402.2083,220.2699Q402.3646,222.69819999999999,405.0664,222.69819999999999Q406.75260000000003,222.69819999999999,408.0417,221.8649L408.0417,224.1436Q406.5899,224.9639,404.2331,224.9639Q401.694,224.9639,400.2813,223.5186Q398.875,222.07319999999999,398.875,219.4951Q398.875,216.9235,400.3594,215.3219Q401.8503,213.71387,404.1029,213.71387Q406.349,213.71387,407.61199999999997,215.1071Q408.875,216.5003,408.875,218.9287L408.875,220.2699ZM405.9583,218.2972Q405.9583,215.8753,404.194,215.8753Q403.4583,215.8753,402.8984,216.5394Q402.3385,217.2035,402.1953,218.2972L405.9583,218.2972ZM423.875,224.9639L420.158,224.9639L417.781,221.0186Q417.072,219.7946,416.616,219.443Q416.16700000000003,219.0915,415.652,219.0915L414.70799999999997,219.0915L414.70799999999997,224.9639L411.375,224.9639L411.375,209.5472L416.74,209.5472Q422.20799999999997,209.5472,422.20799999999997,213.78548Q422.20799999999997,215.3805,421.271,216.5264Q420.34000000000003,217.6657,418.699,218.1279L418.699,218.167Q419.747,218.5186,421.017,220.47820000000002L423.875,224.9639ZM414.604,212.00163L414.604,216.6305L416.258,216.6305Q417.43600000000004,216.6305,418.152,215.9339Q418.875,215.2308,418.875,214.1826Q418.875,212.00163,416.31600000000003,212.00163L414.604,212.00163ZM434.70799999999997,220.2699L428.04200000000003,220.2699Q428.198,222.69819999999999,430.9,222.69819999999999Q432.586,222.69819999999999,433.875,221.8649L433.875,224.1436Q432.423,224.9639,430.06600000000003,224.9639Q427.527,224.9639,426.115,223.5186Q424.70799999999997,222.07319999999999,424.70799999999997,219.4951Q424.70799999999997,216.9235,426.193,215.3219Q427.68399999999997,213.71387,429.93600000000004,213.71387Q432.182,213.71387,433.445,215.1071Q434.70799999999997,216.5003,434.70799999999997,218.9287L434.70799999999997,220.2699ZM431.79200000000003,218.2972Q431.79200000000003,215.8753,430.027,215.8753Q429.29200000000003,215.8753,428.73199999999997,216.5394Q428.172,217.2035,428.029,218.2972L431.79200000000003,218.2972ZM447.625,229.9639L444.29200000000003,229.9639L444.29200000000003,223.18L444.246,223.18Q443.113,224.9639,440.887,224.9639Q438.842,224.9639,437.605,223.5576Q436.375,222.1449,436.375,219.5993Q436.375,216.917,437.74199999999996,215.3154Q439.116,213.71387,441.31600000000003,213.71387Q443.328,213.71387,444.29200000000003,215.2699L444.29200000000003,213.71387L447.625,213.71387L447.625,229.9639ZM444.29200000000003,218.6748Q444.29200000000003,217.6136,443.673,216.8779Q443.055,216.13569999999999,442.098,216.13569999999999Q441.01,216.13569999999999,440.35900000000004,217.0277Q439.70799999999997,217.9131,439.70799999999997,219.5146Q439.70799999999997,220.9469,440.33299999999997,221.7477Q440.96500000000003,222.542,441.948,222.542Q443.009,222.542,443.647,221.72820000000002Q444.29200000000003,220.9144,444.29200000000003,219.6058L444.29200000000003,218.6748ZM460.54200000000003,224.9639L457.20799999999997,224.9639L457.20799999999997,223.0498L457.163,223.0498Q455.95799999999997,224.9639,453.868,224.9639Q450.125,224.9639,450.125,220.335L450.125,213.71387L453.45799999999997,213.71387L453.45799999999997,220.068Q453.45799999999997,222.542,455.249,222.542Q456.14099999999996,222.542,456.674,221.8649Q457.20799999999997,221.1878,457.20799999999997,220.029L457.20799999999997,213.71387L460.54200000000003,213.71387L460.54200000000003,224.9639ZM472.625,220.2699L465.95799999999997,220.2699Q466.115,222.69819999999999,468.81600000000003,222.69819999999999Q470.503,222.69819999999999,471.79200000000003,221.8649L471.79200000000003,224.1436Q470.34000000000003,224.9639,467.983,224.9639Q465.44399999999996,224.9639,464.031,223.5186Q462.625,222.07319999999999,462.625,219.4951Q462.625,216.9235,464.10900000000004,215.3219Q465.6,213.71387,467.853,213.71387Q470.099,213.71387,471.36199999999997,215.1071Q472.625,216.5003,472.625,218.9287L472.625,220.2699ZM469.70799999999997,218.2972Q469.70799999999997,215.8753,467.94399999999996,215.8753Q467.20799999999997,215.8753,466.648,216.5394Q466.089,217.2035,465.945,218.2972L469.70799999999997,218.2972ZM474.70799999999997,221.9495Q476.28999999999996,222.7829,477.801,222.7829Q479.70799999999997,222.7829,479.70799999999997,221.76069999999999Q479.70799999999997,221.0316,478.139,220.5433Q476.173,219.9248,475.438,219.1631Q474.70799999999997,218.3949,474.70799999999997,217.0928Q474.70799999999997,215.51069999999999,475.919,214.6123Q477.137,213.71387,479.103,213.71387Q480.496,213.71387,481.79200000000003,214.1696L481.79200000000003,216.7282Q480.613,215.8949,479.19399999999996,215.8949Q478.48400000000004,215.8949,478.055,216.1423Q477.625,216.3831,477.625,216.7868Q477.625,217.4639,478.973,217.8805Q480.411,218.3753,481.134,218.7855Q481.863,219.1891,482.241,219.8532Q482.625,220.5173,482.625,221.3896Q482.625,223.0889,481.323,224.0264Q480.027,224.9639,477.85900000000004,224.9639Q476.15999999999997,224.9639,474.70799999999997,224.4365L474.70799999999997,221.9495ZM491.375,224.5602Q490.63300000000004,224.9639,489.122,224.9639Q485.54200000000003,224.9639,485.54200000000003,221.2725L485.54200000000003,216.0706L483.875,216.0706L483.875,213.71387L485.54200000000003,213.71387L485.54200000000003,211.2985L488.875,210.38053L488.875,213.71387L491.375,213.71387L491.375,216.0706L488.875,216.0706L488.875,220.7516Q488.875,222.529,490.262,222.529Q490.802,222.529,491.375,222.1123L491.375,224.5602Z" fill="#FFFFFF" fill-opacity="1"/></g><g style="mix-blend-mode:passthrough"><path d="M380.2292,309.90918Q379.7083,314.4079,379.7083,315.6839Q379.7083,317.2139,380.5807,317.2139Q381.4792,317.2139,382.0521,316.068Q382.625,314.9157,382.625,313.1123Q382.625,310.5798,381.0951,308.96517Q379.56510000000003,307.34408,376.8372,307.34408Q373.9531,307.34408,372.0391,309.45996Q370.125,311.5693,370.125,314.5837Q370.125,317.5589,371.8893,319.2646Q373.66020000000003,320.9639,376.70050000000003,320.9639Q379.0378,320.9639,380.9583,320.1305L380.9583,322.012Q379.17449999999997,322.7607,376.3359,322.7607Q372.4492,322.7607,370.0339,320.5277Q367.625,318.2881,367.625,314.5576Q367.625,310.7295,370.1771,308.13835Q372.7292,305.5472,376.75260000000003,305.5472Q380.50260000000003,305.5472,382.8138,307.611Q385.125,309.66829,385.125,312.9951Q385.125,315.723,383.66020000000003,317.3766Q382.2018,319.0303,380.05989999999997,319.0303Q379.0117,319.0303,378.3216,318.4704Q377.6315,317.904,377.5925,316.9469L377.5208,316.9469Q376.8177,319.0042,374.9036,319.0042Q373.49739999999997,319.0042,372.6445,317.9626Q371.7917,316.9144,371.7917,315.0785Q371.7917,312.7021,372.9766,311.2113Q374.1615,309.71387,375.8672,309.71387Q377.41020000000003,309.71387,377.7878,310.9769L377.83979999999997,310.9769Q377.8984,310.723,377.9896,310.4561Q378.0872,310.1956,378.1458,309.90918L380.2292,309.90918ZM374.2917,315.0654Q374.2917,316.0615,374.6562,316.641Q375.0208,317.2139,375.6458,317.2139Q376.5638,317.2139,377.0911,316.1396Q377.625,315.0654,377.625,313.3011Q377.625,312.4352,377.2604,311.96Q376.8958,311.4847,376.2839,311.4847Q375.418,311.4847,374.8516,312.5394Q374.2917,313.5876,374.2917,315.0654ZM401.375,320.9639L397.7878,320.9639L396.6354,317.2074L391.07550000000003,317.2074L389.9427,320.9639L386.375,320.9639L392.2083,305.5472L395.9583,305.5472L401.375,320.9639ZM395.8737,314.7139L394.1094,309.47298Q393.9466,308.97819,393.875,308.15788Q393.8164,308.82194,393.5951,309.43392L391.7786,314.7139L395.8737,314.7139ZM413.45799999999997,320.9639L410.125,320.9639L410.125,319.18L410.079,319.18Q408.9336,320.9639,406.70050000000003,320.9639Q404.6367,320.9639,403.4193,319.5186Q402.2083,318.0732,402.2083,315.5798Q402.2083,312.943,403.57550000000003,311.3285Q404.9492,309.71387,407.1562,309.71387Q409.279,309.71387,410.125,311.2373L410.177,311.2373L410.177,304.71387L413.45799999999997,304.71387L413.45799999999997,320.9639ZM410.125,314.6357Q410.125,313.555,409.493,312.8454Q408.86199999999997,312.1357,407.9115,312.1357Q406.8047,312.1357,406.1732,313.0407Q405.5417,313.9391,405.5417,315.4821Q405.5417,316.9469,406.1471,317.7477Q406.7591,318.54200000000003,407.8268,318.54200000000003Q408.8294,318.54200000000003,409.474,317.7021Q410.125,316.8623,410.125,315.5212L410.125,314.6357ZM426.79200000000003,320.9639L423.45799999999997,320.9639L423.45799999999997,319.18L423.413,319.18Q422.267,320.9639,420.034,320.9639Q417.97,320.9639,416.753,319.5186Q415.54200000000003,318.0732,415.54200000000003,315.5798Q415.54200000000003,312.943,416.909,311.3285Q418.283,309.71387,420.49,309.71387Q422.61199999999997,309.71387,423.45799999999997,311.2373L423.51,311.2373L423.51,304.71387L426.79200000000003,304.71387L426.79200000000003,320.9639ZM423.45799999999997,314.6357Q423.45799999999997,313.555,422.827,312.8454Q422.195,312.1357,421.245,312.1357Q420.13800000000003,312.1357,419.507,313.0407Q418.875,313.9391,418.875,315.4821Q418.875,316.9469,419.48,317.7477Q420.092,318.54200000000003,421.15999999999997,318.54200000000003Q422.163,318.54200000000003,422.807,317.7021Q423.45799999999997,316.8623,423.45799999999997,315.5212L423.45799999999997,314.6357ZM436.375,313.0472Q435.796,312.6305,434.969,312.6305Q433.895,312.6305,433.257,313.4574Q432.625,314.2842,432.625,315.7295L432.625,320.9639L429.29200000000003,320.9639L429.29200000000003,309.71387L432.625,309.71387L432.625,312.1357L432.664,312.1357Q433.452,309.71387,435.522,309.71387Q436.082,309.71387,436.375,309.85059L436.375,313.0472ZM447.20799999999997,316.2699L440.54200000000003,316.2699Q440.698,318.6982,443.4,318.6982Q445.086,318.6982,446.375,317.8649L446.375,320.1436Q444.923,320.9639,442.56600000000003,320.9639Q440.027,320.9639,438.615,319.5186Q437.20799999999997,318.0732,437.20799999999997,315.4951Q437.20799999999997,312.9235,438.693,311.3219Q440.18399999999997,309.71387,442.43600000000004,309.71387Q444.682,309.71387,445.945,311.1071Q447.20799999999997,312.5003,447.20799999999997,314.9287L447.20799999999997,316.2699ZM444.29200000000003,314.2972Q444.29200000000003,311.8753,442.527,311.8753Q441.79200000000003,311.8753,441.23199999999997,312.5394Q440.672,313.2035,440.529,314.2972L444.29200000000003,314.2972ZM449.29200000000003,317.9495Q450.874,318.7829,452.384,318.7829Q454.29200000000003,318.7829,454.29200000000003,317.7607Q454.29200000000003,317.0316,452.723,316.5433Q450.757,315.9248,450.02099999999996,315.1631Q449.29200000000003,314.3949,449.29200000000003,313.0928Q449.29200000000003,311.5107,450.503,310.6123Q451.72,309.71387,453.68600000000004,309.71387Q455.079,309.71387,456.375,310.1696L456.375,312.7282Q455.197,311.8949,453.777,311.8949Q453.068,311.8949,452.63800000000003,312.1423Q452.20799999999997,312.3831,452.20799999999997,312.78679999999997Q452.20799999999997,313.4639,453.55600000000004,313.8805Q454.995,314.3753,455.717,314.7855Q456.447,315.1891,456.824,315.8532Q457.20799999999997,316.5173,457.20799999999997,317.3896Q457.20799999999997,319.0889,455.906,320.0264Q454.611,320.9639,452.443,320.9639Q450.743,320.9639,449.29200000000003,320.4365L449.29200000000003,317.9495ZM459.29200000000003,317.9495Q460.874,318.7829,462.384,318.7829Q464.29200000000003,318.7829,464.29200000000003,317.7607Q464.29200000000003,317.0316,462.723,316.5433Q460.757,315.9248,460.02099999999996,315.1631Q459.29200000000003,314.3949,459.29200000000003,313.0928Q459.29200000000003,311.5107,460.503,310.6123Q461.72,309.71387,463.68600000000004,309.71387Q465.079,309.71387,466.375,310.1696L466.375,312.7282Q465.197,311.8949,463.777,311.8949Q463.068,311.8949,462.63800000000003,312.1423Q462.20799999999997,312.3831,462.20799999999997,312.78679999999997Q462.20799999999997,313.4639,463.55600000000004,313.8805Q464.995,314.3753,465.717,314.7855Q466.447,315.1891,466.824,315.8532Q467.20799999999997,316.5173,467.20799999999997,317.3896Q467.20799999999997,319.0889,465.906,320.0264Q464.611,320.9639,462.443,320.9639Q460.743,320.9639,459.29200000000003,320.4365L459.29200000000003,317.9495Z" fill="#FFFFFF" fill-opacity="1"/></g><g style="mix-blend-mode:passthrough"><path d="M661.0208,213.90918Q660.5,218.4079,660.5,219.6839Q660.5,221.2139,661.3724,221.2139Q662.2708,221.2139,662.8438,220.068Q663.4167,218.9157,663.4167,217.1123Q663.4167,214.5798,661.8867,212.96517Q660.3568,211.34408,657.6289,211.34408Q654.7447999999999,211.34408,652.8307,213.45996Q650.9167,215.5693,650.9167,218.5837Q650.9167,221.5589,652.681,223.2646Q654.4518,224.9639,657.4922,224.9639Q659.8294,224.9639,661.75,224.1305L661.75,226.012Q659.9661,226.76069999999999,657.1276,226.76069999999999Q653.2409,226.76069999999999,650.8255,224.5277Q648.4167,222.2881,648.4167,218.5576Q648.4167,214.7295,650.9688,212.13835Q653.5208,209.5472,657.5443,209.5472Q661.2943,209.5472,663.6055,211.611Q665.9167,213.66829,665.9167,216.9951Q665.9167,219.723,664.4518,221.3766Q662.9935,223.0303,660.8516,223.0303Q659.8034,223.0303,659.1133,222.4704Q658.4232,221.904,658.3841,220.9469L658.3125,220.9469Q657.6094,223.0042,655.6953,223.0042Q654.2891,223.0042,653.4362,221.9626Q652.5833,220.9144,652.5833,219.0785Q652.5833,216.7021,653.7682,215.2113Q654.9531,213.71387,656.6589,213.71387Q658.2018,213.71387,658.5794,214.9769L658.6315,214.9769Q658.6901,214.723,658.7812,214.4561Q658.8789,214.1956,658.9375,213.90918L661.0208,213.90918ZM655.0833,219.0654Q655.0833,220.0615,655.4479,220.641Q655.8125,221.2139,656.4375,221.2139Q657.3555,221.2139,657.8828,220.1396Q658.4167,219.0654,658.4167,217.3011Q658.4167,216.4352,658.0521,215.96Q657.6875,215.4847,657.0755,215.4847Q656.2096,215.4847,655.6432,216.5394Q655.0833,217.5876,655.0833,219.0654ZM681.3333,224.9639L677.6159,224.9639L675.2396,221.0186Q674.5299,219.7946,674.0742,219.443Q673.625,219.0915,673.1107,219.0915L672.1667,219.0915L672.1667,224.9639L668.8333,224.9639L668.8333,209.5472L674.1979,209.5472Q679.6667,209.5472,679.6667,213.78548Q679.6667,215.3805,678.7292,216.5264Q677.7982,217.6657,676.1575,218.1279L676.1575,218.167Q677.2057,218.5186,678.4753000000001,220.47820000000002L681.3333,224.9639ZM672.0625,212.00163L672.0625,216.6305L673.7161,216.6305Q674.8945,216.6305,675.6107,215.9339Q676.3333,215.2308,676.3333,214.1826Q676.3333,212.00163,673.7746999999999,212.00163L672.0625,212.00163ZM692.167,220.2699L685.5,220.2699Q685.6562,222.69819999999999,688.3581,222.69819999999999Q690.044,222.69819999999999,691.333,221.8649L691.333,224.1436Q689.8815,224.9639,687.5246999999999,224.9639Q684.9857,224.9639,683.5729,223.5186Q682.1667,222.07319999999999,682.1667,219.4951Q682.1667,216.9235,683.651,215.3219Q685.1419,213.71387,687.3945,213.71387Q689.6406,213.71387,690.904,215.1071Q692.167,216.5003,692.167,218.9287L692.167,220.2699ZM689.25,218.2972Q689.25,215.8753,687.4857,215.8753Q686.75,215.8753,686.1901,216.5394Q685.6302000000001,217.2035,685.487,218.2972L689.25,218.2972ZM705.083,229.9639L701.75,229.9639L701.75,223.18L701.704,223.18Q700.572,224.9639,698.345,224.9639Q696.301,224.9639,695.064,223.5576Q693.833,222.1449,693.833,219.5993Q693.833,216.917,695.201,215.3154Q696.574,213.71387,698.775,213.71387Q700.7860000000001,213.71387,701.75,215.2699L701.75,213.71387L705.083,213.71387L705.083,229.9639ZM701.75,218.6748Q701.75,217.6136,701.1320000000001,216.8779Q700.513,216.13569999999999,699.556,216.13569999999999Q698.469,216.13569999999999,697.818,217.0277Q697.167,217.9131,697.167,219.5146Q697.167,220.9469,697.792,221.7477Q698.423,222.542,699.406,222.542Q700.467,222.542,701.105,221.72820000000002Q701.75,220.9144,701.75,219.6058L701.75,218.6748ZM718,224.9639L714.667,224.9639L714.667,223.0498L714.621,223.0498Q713.417,224.9639,711.327,224.9639Q707.583,224.9639,707.583,220.335L707.583,213.71387L710.917,213.71387L710.917,220.068Q710.917,222.542,712.707,222.542Q713.599,222.542,714.133,221.8649Q714.667,221.1878,714.667,220.029L714.667,213.71387L718,213.71387L718,224.9639ZM730.083,220.2699L723.417,220.2699Q723.573,222.69819999999999,726.275,222.69819999999999Q727.961,222.69819999999999,729.25,221.8649L729.25,224.1436Q727.798,224.9639,725.441,224.9639Q722.902,224.9639,721.49,223.5186Q720.083,222.07319999999999,720.083,219.4951Q720.083,216.9235,721.568,215.3219Q723.059,213.71387,725.311,213.71387Q727.557,213.71387,728.8199999999999,215.1071Q730.083,216.5003,730.083,218.9287L730.083,220.2699ZM727.167,218.2972Q727.167,215.8753,725.402,215.8753Q724.667,215.8753,724.107,216.5394Q723.547,217.2035,723.404,218.2972L727.167,218.2972ZM732.167,221.9495Q733.749,222.7829,735.259,222.7829Q737.167,222.7829,737.167,221.76069999999999Q737.167,221.0316,735.598,220.5433Q733.6320000000001,219.9248,732.896,219.1631Q732.167,218.3949,732.167,217.0928Q732.167,215.51069999999999,733.3779999999999,214.6123Q734.595,213.71387,736.561,213.71387Q737.954,213.71387,739.25,214.1696L739.25,216.7282Q738.072,215.8949,736.652,215.8949Q735.943,215.8949,735.513,216.1423Q735.083,216.3831,735.083,216.7868Q735.083,217.4639,736.431,217.8805Q737.87,218.3753,738.592,218.7855Q739.322,219.1891,739.6990000000001,219.8532Q740.083,220.5173,740.083,221.3896Q740.083,223.0889,738.781,224.0264Q737.486,224.9639,735.318,224.9639Q733.6179999999999,224.9639,732.167,224.4365L732.167,221.9495ZM748.833,224.5602Q748.091,224.9639,746.581,224.9639Q743,224.9639,743,221.2725L743,216.0706L741.333,216.0706L741.333,213.71387L743,213.71387L743,211.2985L746.333,210.38053L746.333,213.71387L748.833,213.71387L748.833,216.0706L746.333,216.0706L746.333,220.7516Q746.333,222.529,747.72,222.529Q748.26,222.529,748.833,222.1123L748.833,224.5602Z" fill="#FFFFFF" fill-opacity="1"/></g><g style="mix-blend-mode:passthrough"><path d="M85.4404,133.934L94.6689,133.934L94.6689,131.3298L87.39359999999999,131.3298L87.39359999999999,128.2048L94.6689,128.2048L94.6689,125.6007L89.957,125.6007L89.957,123.672Q88.3457,124.9252,86.5146,126.1215Q85.8066,125.1694,84.3418,123.3953Q92.1543,119.074,94.9375,114.14233L99.21,114.14233L98.5752,115.07007Q101.7246,119.59479999999999,108.6582,122.85Q107.3643,124.38810000000001,106.4609,125.6007Q104.6299,124.6485,103.043,123.5987L103.043,125.6007L98.3066,125.6007L98.3066,128.2048L105.6553,128.2048L105.6553,131.3298L98.3066,131.3298L98.3066,133.934L107.5596,133.934L107.5596,137.059L85.4404,137.059L85.4404,133.934ZM96.5,117.65796Q94.498,120.1645,91.5195,122.4757L101.4805,122.4757Q98.5508,120.2621,96.5,117.65796ZM111.6367,114.66317L131.534,114.66317L131.534,122.1583L115.1035,122.1583Q115.0954,122.8582,115.0954,123.5173L132.63299999999998,123.5173L132.478,133.2748Q132.438,135.1466,131.909,135.9685Q131.388,136.7986,130.598,137.1648Q129.817,137.531,124.4541,137.531Q124.2344,136.0173,123.8193,134.3572Q126.163,134.4548,127.205,134.4548Q127.97,134.4548,128.368,134.17000000000002Q128.775,133.8852,128.881,133.4783Q128.995,133.0714,129.06,129.1L129.09300000000002,126.325L115.0221,126.325Q115.0059,133.5027,112.0762,137.5798Q110.4893,135.8546,109.3906,134.7804Q110.6602,132.6807,111.1322,130.1173Q111.6123,127.5538,111.6367,122.4919L111.6367,114.66317ZM128.067,119.3507L128.067,117.47079L115.1035,117.47079L115.1035,119.3507L128.067,119.3507ZM126.578,127.684L126.578,133.5515L119.6445,133.5515L119.6445,134.7234L116.5195,134.7234L116.5195,127.684L126.578,127.684ZM119.6445,129.9057L119.6445,131.3298L123.4531,131.3298L123.4531,129.9057L119.6445,129.9057ZM134.635,114.66317L147.30599999999998,114.66317L147.30599999999998,117.44637L143.839,117.44637L143.839,119.3507L146.988,119.3507L146.988,137.5798L144.4,137.5798L144.4,135.9522L137.882,135.9522L137.882,137.5798L135.29399999999998,137.5798L135.29399999999998,119.3507L138.44299999999998,119.3507L138.44299999999998,117.44637L134.635,117.44637L134.635,114.66317ZM140.64100000000002,119.3507L141.739,119.3507L141.739,117.44637L140.64100000000002,117.44637L140.64100000000002,119.3507ZM139.273,128.7257Q138.55700000000002,128.0746,137.882,127.51310000000001L137.882,129.2465L144.4,129.2465L144.4,127.6514L143.888,127.6514Q141.739,127.6514,141.739,125.446L141.739,121.9141L140.632,121.9141Q140.535,126.5121,139.273,128.7257ZM144.69299999999998,125.6007L144.864,125.6007L144.864,121.9141L143.839,121.9141L143.839,124.6648Q143.839,125.6007,144.69299999999998,125.6007ZM137.46699999999998,126.5447Q138.41899999999998,125.0961,138.41899999999998,121.9141L137.46699999999998,121.9141L137.46699999999998,126.5447ZM137.882,133.4132L144.4,133.4132L144.4,131.6635L137.882,131.6635L137.882,133.4132ZM155.631,129.2465Q156.729,129.7348,158.731,130.3695Q158.259,133.877,157.926,134.94310000000002Q157.6,136.0173,156.819,136.5138Q156.046,137.0102,154.801,137.0102L151.627,137.0102Q148.502,137.0102,148.502,133.6329L148.502,122.4757L154.264,122.4757L154.264,117.78817L148.136,117.78817L148.136,114.66317L157.438,114.66317L157.438,125.6007L151.651,125.6007L151.651,132.8272Q151.651,133.934,152.701,133.934L153.849,133.934Q154.768,133.934,155.069,133.2911Q155.379,132.6482,155.631,129.2465ZM159.317,134.9757L162.027,134.9757L162.027,124.559L169.352,124.559L169.352,123.6313L159.83,123.6313L159.83,121.434L169.352,121.434L169.352,120.311L160.855,120.311L160.855,114.66317L182.169,114.66317L182.169,120.311L173.062,120.311L173.062,121.434L183.121,121.434L183.121,123.6313L173.062,123.6313L173.062,124.559L180.948,124.559L180.948,134.9757L183.683,134.9757L183.683,137.2218L159.317,137.2218L159.317,134.9757ZM165.421,134.9757L177.555,134.9757L177.555,133.934L165.421,133.934L165.421,134.9757ZM177.555,126.7074L165.421,126.7074L165.421,127.684L177.555,127.684L177.555,126.7074ZM165.421,132.3715L177.555,132.3715L177.555,131.3298L165.421,131.3298L165.421,132.3715ZM165.421,129.7673L177.555,129.7673L177.555,129.2465L165.421,129.2465L165.421,129.7673ZM169.986,118.309L173.038,118.309L173.038,116.66512L169.986,116.66512L169.986,118.309ZM178.971,118.309L178.971,116.66512L175.919,116.66512L175.919,118.309L178.971,118.309ZM164.054,118.309L167.105,118.309L167.105,116.66512L164.054,116.66512L164.054,118.309Z" fill="#FFFFFF" fill-opacity="1"/></g><g style="mix-blend-mode:passthrough"><path d="M388.8525,118.4392L385.1416,118.4392L387.4121,119.3588L385.874,121.434L389.6094,121.434L389.6094,124.16839999999999L378.5742,124.16839999999999L381.2109,124.9171L380.52729999999997,126.1215L389.3652,126.1215L389.3652,128.8559L386.9157,128.8559Q386.1182,131.1101,384.5312,132.8354L389.2676,134.82920000000001L387.6318,137.5798Q384.5964,136.058,382.0085,134.8699Q378.7858,136.8067,373.7402,137.5798Q373.1055,136.2778,372.2021,134.8048Q375.9619,134.3653,378.5254,133.2911Q376.03520000000003,132.2006,374.1064,131.5496Q374.9284,130.23930000000001,375.6364,128.8559L373.1055,128.8559L373.1055,127.6921Q372.2673,127.8712,371.34770000000003,128.1235L371.34770000000003,134.349Q371.34770000000003,135.7976,370.7292,136.587Q370.1188,137.3764,368.9144,137.4822Q367.71,137.588,366.0986,137.6287Q365.8789,136.0417,365.3662,134.3979Q366.2695,134.4548,366.9694,134.4548Q367.71,134.4548,367.9378,134.2026Q368.1738,133.9421,368.1738,133.2585L368.1738,128.7175L365.7568,129.7673L365.3662,126.2761Q366.5381,126.0645,368.1738,125.6983L368.1738,121.434L365.7568,121.434L365.7568,118.309L368.1738,118.309L368.1738,113.6215L371.34770000000003,113.6215L371.34770000000003,118.309L373.4229,118.309L373.4229,121.434L371.34770000000003,121.434L371.34770000000003,125.21000000000001L373.27639999999997,124.4288Q373.24379999999996,125.3484,373.24379999999996,126.1215L376.9385,126.1215Q377.3535,125.1694,377.736,124.16839999999999L373.1299,124.16839999999999L373.1299,121.434L376.5967,121.434Q375.8805,120.1482,375.3516,119.3588L377.3779,118.4392L373.9844,118.4392L373.9844,115.70483L379.40430000000003,115.70483Q379.0544,114.92358,378.6719,114.23185L382.334,113.6215Q382.7653,114.5411,383.1803,115.70483L388.8525,115.70483L388.8525,118.4392ZM380.3564,120.7667L378.8346,121.434L382.1549,121.434Q383.3594,119.5378,383.9453,118.4392L378.7695,118.4392Q379.4694,119.3914,380.3564,120.7667ZM378.1836,130.2638L381.4062,131.5658Q382.749,130.394,383.4001,128.8559L378.9893,128.8559L378.1836,130.2638ZM392.0996,137.059L392.0996,115.70483L412.925,115.70483L412.925,137.059L409.26300000000003,137.059L409.26300000000003,135.1954L395.7617,135.1954L395.7617,137.059L392.0996,137.059ZM409.26300000000003,119.0496L395.7617,119.0496L395.7617,131.8507L409.26300000000003,131.8507L409.26300000000003,119.0496ZM415.635,114.66317L428.306,114.66317L428.306,117.44637L424.839,117.44637L424.839,119.3507L427.988,119.3507L427.988,137.5798L425.4,137.5798L425.4,135.9522L418.882,135.9522L418.882,137.5798L416.294,137.5798L416.294,119.3507L419.443,119.3507L419.443,117.44637L415.635,117.44637L415.635,114.66317ZM421.641,119.3507L422.73900000000003,119.3507L422.73900000000003,117.44637L421.641,117.44637L421.641,119.3507ZM420.273,128.7257Q419.557,128.0746,418.882,127.51310000000001L418.882,129.2465L425.4,129.2465L425.4,127.6514L424.88800000000003,127.6514Q422.73900000000003,127.6514,422.73900000000003,125.446L422.73900000000003,121.9141L421.632,121.9141Q421.53499999999997,126.5121,420.273,128.7257ZM425.693,125.6007L425.86400000000003,125.6007L425.86400000000003,121.9141L424.839,121.9141L424.839,124.6648Q424.839,125.6007,425.693,125.6007ZM418.467,126.5447Q419.419,125.0961,419.419,121.9141L418.467,121.9141L418.467,126.5447ZM418.882,133.4132L425.4,133.4132L425.4,131.6635L418.882,131.6635L418.882,133.4132ZM436.631,129.2465Q437.72900000000004,129.7348,439.731,130.3695Q439.259,133.877,438.926,134.94310000000002Q438.6,136.0173,437.81899999999996,136.5138Q437.046,137.0102,435.801,137.0102L432.627,137.0102Q429.502,137.0102,429.502,133.6329L429.502,122.4757L435.264,122.4757L435.264,117.78817L429.13599999999997,117.78817L429.13599999999997,114.66317L438.438,114.66317L438.438,125.6007L432.651,125.6007L432.651,132.8272Q432.651,133.934,433.701,133.934L434.849,133.934Q435.76800000000003,133.934,436.06899999999996,133.2911Q436.379,132.6482,436.631,129.2465ZM440.317,134.9757L443.027,134.9757L443.027,124.559L450.352,124.559L450.352,123.6313L440.83000000000004,123.6313L440.83000000000004,121.434L450.352,121.434L450.352,120.311L441.855,120.311L441.855,114.66317L463.169,114.66317L463.169,120.311L454.062,120.311L454.062,121.434L464.121,121.434L464.121,123.6313L454.062,123.6313L454.062,124.559L461.948,124.559L461.948,134.9757L464.683,134.9757L464.683,137.2218L440.317,137.2218L440.317,134.9757ZM446.421,134.9757L458.555,134.9757L458.555,133.934L446.421,133.934L446.421,134.9757ZM458.555,126.7074L446.421,126.7074L446.421,127.684L458.555,127.684L458.555,126.7074ZM446.421,132.3715L458.555,132.3715L458.555,131.3298L446.421,131.3298L446.421,132.3715ZM446.421,129.7673L458.555,129.7673L458.555,129.2465L446.421,129.2465L446.421,129.7673ZM450.986,118.309L454.038,118.309L454.038,116.66512L450.986,116.66512L450.986,118.309ZM459.971,118.309L459.971,116.66512L456.919,116.66512L456.919,118.309L459.971,118.309ZM445.054,118.309L448.105,118.309L448.105,116.66512L445.054,116.66512L445.054,118.309Z" fill="#FFFFFF" fill-opacity="1"/></g><g style="mix-blend-mode:passthrough"><path d="M652.4941,121.9548L659.6963,121.9548L659.6963,120.9294L653.8369,120.9294L653.8369,118.8298L659.6963,118.8298L659.6963,117.80444L653.2754,117.80444L653.2754,115.70483L659.6963,115.70483L659.6963,113.6215L663.1875,113.6215L663.1875,115.70483L670.0479,115.70483L670.0479,117.80444L663.1875,117.80444L663.1875,118.8298L669.3887,118.8298L669.3887,120.9294L663.1875,120.9294L663.1875,121.9548L670.6338,121.9548L670.6338,124.0544L652.4941,124.0544L652.4941,121.9548ZM649.6621,114.14233Q651.3467,116.37215,652.8115,118.6834L649.9551,120.3923Q648.5635,117.86141,647.0254,115.68042L649.6621,114.14233ZM653.251,130.2882Q653.3486,132.4854,653.5439,134.0479Q651.0049,135.9278,649.4912,137.71L647.7334,135.2768Q648.3926,134.4304,648.3926,133.1853L648.3926,125.1287L646.3906,125.1287L646.3906,121.9548L651.4688,121.9548L651.4688,131.7693Q652.2012,131.1833,653.251,130.2882ZM657.5234,137.4171L654.252,137.4171L654.252,125.0798L668.8271,125.0798L668.8271,134.1293Q668.8271,135.6104,668.1517,136.39170000000001Q667.4844,137.18110000000001,666.2474,137.2869Q665.0104,137.3927,661.21,137.4171Q660.9414,136.3591,660.4775,134.9757Q663.5781,134.9757,664.1885,134.9757Q665.5557,134.9757,665.5557,133.698L665.5557,133.3562L657.5234,133.3562L657.5234,137.4171ZM665.5557,127.3748L657.5234,127.3748L657.5234,128.2048L665.5557,128.2048L665.5557,127.3748ZM657.5234,131.3298L665.5557,131.3298L665.5557,130.2312L657.5234,130.2312L657.5234,131.3298ZM694.901,123.8184L689.327,128.0095Q691.915,130.3614,695.634,131.5903Q694.633,133.1202,693.607,134.9757Q688.065,132.4366,685.0625,127.2283L685.0625,133.1039Q685.0625,135.1222,684.1673,136.2126Q683.2803,137.3031,681.3597,137.4333Q679.4391,137.5717,677.6406,137.5717Q677.2744,135.61860000000001,676.7617,133.8363Q678.4219,133.934,679.6182,133.934Q681.6445,133.934,681.6445,131.9727L681.6445,129.7511Q676.6071,132.6645,672.9775,134.9757L671.3662,131.753Q676.9814,128.9698,681.6445,125.9913L681.6445,120.8155L671.7812,120.8155L671.7812,117.78817L681.6445,117.78817L681.6445,113.6215L685.0625,113.6215L685.0625,117.78817L690.336,117.78817Q688.896,116.64071,687.2842,115.57463L689.433,113.6215Q691.215,114.72827,693.095,116.16056L691.329,117.78817L695.268,117.78817L695.268,120.8155L685.0625,120.8155L685.0625,121.67Q685.9577,123.9649,687.3249,125.7878Q690.116,123.7126,692.509,121.434L694.901,123.8184ZM675.0771,121.434Q677.5674,123.4115,679.8379,125.5437L677.5918,127.684Q675.4678,125.5844,673.002,123.4522L675.0771,121.434ZM696.635,114.66317L709.306,114.66317L709.306,117.44637L705.8389999999999,117.44637L705.8389999999999,119.3507L708.988,119.3507L708.988,137.5798L706.4,137.5798L706.4,135.9522L699.8820000000001,135.9522L699.8820000000001,137.5798L697.294,137.5798L697.294,119.3507L700.443,119.3507L700.443,117.44637L696.635,117.44637L696.635,114.66317ZM702.641,119.3507L703.739,119.3507L703.739,117.44637L702.641,117.44637L702.641,119.3507ZM701.273,128.7257Q700.557,128.0746,699.8820000000001,127.51310000000001L699.8820000000001,129.2465L706.4,129.2465L706.4,127.6514L705.888,127.6514Q703.739,127.6514,703.739,125.446L703.739,121.9141L702.6320000000001,121.9141Q702.535,126.5121,701.273,128.7257ZM706.693,125.6007L706.864,125.6007L706.864,121.9141L705.8389999999999,121.9141L705.8389999999999,124.6648Q705.8389999999999,125.6007,706.693,125.6007ZM699.467,126.5447Q700.419,125.0961,700.419,121.9141L699.467,121.9141L699.467,126.5447ZM699.8820000000001,133.4132L706.4,133.4132L706.4,131.6635L699.8820000000001,131.6635L699.8820000000001,133.4132ZM717.631,129.2465Q718.729,129.7348,720.731,130.3695Q720.259,133.877,719.9259999999999,134.94310000000002Q719.6,136.0173,718.819,136.5138Q718.046,137.0102,716.8009999999999,137.0102L713.627,137.0102Q710.502,137.0102,710.502,133.6329L710.502,122.4757L716.264,122.4757L716.264,117.78817L710.136,117.78817L710.136,114.66317L719.438,114.66317L719.438,125.6007L713.651,125.6007L713.651,132.8272Q713.651,133.934,714.701,133.934L715.849,133.934Q716.768,133.934,717.069,133.2911Q717.379,132.6482,717.631,129.2465ZM721.317,134.9757L724.027,134.9757L724.027,124.559L731.352,124.559L731.352,123.6313L721.83,123.6313L721.83,121.434L731.352,121.434L731.352,120.311L722.855,120.311L722.855,114.66317L744.169,114.66317L744.169,120.311L735.062,120.311L735.062,121.434L745.121,121.434L745.121,123.6313L735.062,123.6313L735.062,124.559L742.948,124.559L742.948,134.9757L745.683,134.9757L745.683,137.2218L721.317,137.2218L721.317,134.9757ZM727.421,134.9757L739.5550000000001,134.9757L739.5550000000001,133.934L727.421,133.934L727.421,134.9757ZM739.5550000000001,126.7074L727.421,126.7074L727.421,127.684L739.5550000000001,127.684L739.5550000000001,126.7074ZM727.421,132.3715L739.5550000000001,132.3715L739.5550000000001,131.3298L727.421,131.3298L727.421,132.3715ZM727.421,129.7673L739.5550000000001,129.7673L739.5550000000001,129.2465L727.421,129.2465L727.421,129.7673ZM731.986,118.309L735.038,118.309L735.038,116.66512L731.986,116.66512L731.986,118.309ZM740.971,118.309L740.971,116.66512L737.919,116.66512L737.919,118.309L740.971,118.309ZM726.054,118.309L729.105,118.309L729.105,116.66512L726.054,116.66512L726.054,118.309Z" fill="#FFFFFF" fill-opacity="1"/></g><g style="mix-blend-mode:passthrough"><path d="M60.375,310.6514Q61.0846,310.2347,62.276,309.97428Q63.4675,309.71387,64.3073,309.71387Q68.70830000000001,309.71387,68.70830000000001,314.3298L68.70830000000001,320.9639L65.79169999999999,320.9639L65.79169999999999,319.18L65.7526,319.18Q64.64580000000001,320.9639,62.5104,320.9639Q60.974,320.9639,60.0495,320.1175Q59.125,319.2646,59.125,317.8063Q59.125,314.792,62.9531,314.2972L66.02600000000001,313.874Q66.02600000000001,311.8949,64.0469,311.8949Q62.1003,311.8949,60.375,313.1449L60.375,310.6514ZM63.8581,315.9639Q62.0417,316.1787,62.0417,317.4222Q62.0417,317.9951,62.4779,318.3467Q62.9206,318.6982,63.6693,318.6982Q64.6979,318.6982,65.362,318.0537Q66.02600000000001,317.4027,66.02600000000001,316.4391L66.02600000000001,315.7035L63.8581,315.9639ZM74.54169999999999,319.4014L74.54169999999999,325.9639L71.20830000000001,325.9639L71.20830000000001,309.71387L74.54169999999999,309.71387L74.54169999999999,311.6279L74.58070000000001,311.6279Q75.8177,309.71387,78.08330000000001,309.71387Q80.1406,309.71387,81.2995,311.1462Q82.45830000000001,312.5719,82.45830000000001,315.0394Q82.45830000000001,317.7217,81.11070000000001,319.3428Q79.7695,320.9639,77.582,320.9639Q75.6029,320.9639,74.58070000000001,319.4014L74.54169999999999,319.4014ZM74.54169999999999,315.9574Q74.54169999999999,317.0967,75.1406,317.8193Q75.7461,318.54200000000003,76.7096,318.54200000000003Q77.84899999999999,318.54200000000003,78.487,317.637Q79.125,316.7256,79.125,315.0719Q79.125,312.1357,76.89189999999999,312.1357Q75.8503,312.1357,75.1927,312.9495Q74.54169999999999,313.7568,74.54169999999999,315.0329L74.54169999999999,315.9574ZM87.875,319.4014L87.875,325.9639L84.54169999999999,325.9639L84.54169999999999,309.71387L87.875,309.71387L87.875,311.6279L87.91409999999999,311.6279Q89.15100000000001,309.71387,91.41669999999999,309.71387Q93.474,309.71387,94.6328,311.1462Q95.7917,312.5719,95.7917,315.0394Q95.7917,317.7217,94.444,319.3428Q93.1029,320.9639,90.9154,320.9639Q88.9362,320.9639,87.91409999999999,319.4014L87.875,319.4014ZM87.875,315.9574Q87.875,317.0967,88.47399999999999,317.8193Q89.07939999999999,318.54200000000003,90.043,318.54200000000003Q91.1823,318.54200000000003,91.8203,317.637Q92.4583,316.7256,92.4583,315.0719Q92.4583,312.1357,90.2253,312.1357Q89.1836,312.1357,88.52600000000001,312.9495Q87.875,313.7568,87.875,315.0329L87.875,315.9574ZM97.875,320.9639L97.875,304.71387L101.2083,304.71387L101.2083,320.9639L97.875,320.9639ZM103.7083,306.34798Q103.7083,305.62533,104.2292,305.1696Q104.7565,304.71387,105.5768,304.71387Q106.4167,304.71387,106.9375,305.18262Q107.4583,305.64486,107.4583,306.34798Q107.4583,307.05762,106.9245,307.53288Q106.3971,308.00814,105.5768,308.00814Q104.7695,308.00814,104.2357,307.53288Q103.7083,307.05111,103.7083,306.34798ZM104.125,320.9639L104.125,309.71387L107.4583,309.71387L107.4583,320.9639L104.125,320.9639ZM117.875,320.2933Q116.7422,320.9639,114.6458,320.9639Q112.1784,320.9639,110.6484,319.473Q109.125,317.9756,109.125,315.59929999999997Q109.125,312.8649,110.7656,311.2894Q112.4128,309.71387,115.1471,309.71387Q116.9961,309.71387,117.888,310.2282L117.888,312.9691Q116.8268,312.1357,115.5768,312.1357Q114.1641,312.1357,113.3112,313.0081Q112.4583,313.874,112.4583,315.3844Q112.4583,316.8558,113.2656,317.7021Q114.0794,318.54200000000003,115.4727,318.54200000000003Q116.7031,318.54200000000003,117.875,317.7087L117.875,320.2933ZM120.7917,310.6514Q121.5013,310.2347,122.6927,309.97428Q123.8841,309.71387,124.724,309.71387Q129.125,309.71387,129.125,314.3298L129.125,320.9639L126.2083,320.9639L126.2083,319.18L126.1693,319.18Q125.0625,320.9639,122.9271,320.9639Q121.3906,320.9639,120.4661,320.1175Q119.5417,319.2646,119.5417,317.8063Q119.5417,314.792,123.3698,314.2972L126.4427,313.874Q126.4427,311.8949,124.4635,311.8949Q122.5169,311.8949,120.7917,313.1449L120.7917,310.6514ZM124.2747,315.9639Q122.4583,316.1787,122.4583,317.4222Q122.4583,317.9951,122.8945,318.3467Q123.3372,318.6982,124.0859,318.6982Q125.1146,318.6982,125.7786,318.0537Q126.4427,317.4027,126.4427,316.4391L126.4427,315.7035L124.2747,315.9639ZM138.292,320.5602Q137.549,320.9639,136.039,320.9639Q132.458,320.9639,132.458,317.2725L132.458,312.0706L130.792,312.0706L130.792,309.71387L132.458,309.71387L132.458,307.2985L135.792,306.38053L135.792,309.71387L138.292,309.71387L138.292,312.0706L135.792,312.0706L135.792,316.7516Q135.792,318.529,137.178,318.529Q137.719,318.529,138.292,318.1123L138.292,320.5602ZM139.958,306.34798Q139.958,305.62533,140.47899999999998,305.1696Q141.007,304.71387,141.827,304.71387Q142.667,304.71387,143.188,305.18262Q143.708,305.64486,143.708,306.34798Q143.708,307.05762,143.174,307.53288Q142.647,308.00814,141.827,308.00814Q141.01999999999998,308.00814,140.486,307.53288Q139.958,307.05111,139.958,306.34798ZM140.375,320.9639L140.375,309.71387L143.708,309.71387L143.708,320.9639L140.375,320.9639ZM145.375,315.3844Q145.375,312.7412,146.983,311.2308Q148.598,309.71387,151.31900000000002,309.71387Q153.949,309.71387,155.49200000000002,311.2048Q157.042,312.6891,157.042,315.2021Q157.042,317.8389,155.453,319.4014Q153.87099999999998,320.9639,151.156,320.9639Q148.5,320.9639,146.938,319.4665Q145.375,317.9691,145.375,315.3844ZM148.708,315.3454Q148.708,318.54200000000003,151.26,318.54200000000003Q153.708,318.54200000000003,153.708,315.2607Q153.708,312.1357,151.24099999999999,312.1357Q150.043,312.1357,149.372,312.9756Q148.708,313.8154,148.708,315.3454ZM169.542,320.9639L166.208,320.9639L166.208,314.8115Q166.208,312.1357,164.431,312.1357Q163.585,312.1357,163.018,312.8519Q162.458,313.5615,162.458,314.6683L162.458,320.9639L159.125,320.9639L159.125,309.71387L162.458,309.71387L162.458,311.6995L162.497,311.6995Q163.676,309.71387,165.961,309.71387Q169.542,309.71387,169.542,314.2386L169.542,320.9639ZM171.625,319.2842Q171.625,318.5485,172.178,318.0798Q172.738,317.611,173.513,317.611Q174.301,317.611,174.835,318.0928Q175.375,318.568,175.375,319.2842Q175.375,320.0329,174.835,320.5016Q174.301,320.9639,173.474,320.9639Q172.712,320.9639,172.165,320.4886Q171.625,320.0068,171.625,319.2842ZM188.396,309.71387L183.708,321.7061Q182.126,325.8857,178.975,325.8857Q177.725,325.8857,177.042,325.6253L177.042,323.0472Q177.667,323.4639,178.415,323.4639Q179.685,323.4639,180.206,322.1878L180.792,320.736L176.625,309.71387L180.062,309.71387L182.139,316.68Q182.335,317.318,182.419,318.09929999999997L182.478,318.09929999999997Q182.549,317.5654,182.816,316.6995L185.062,309.71387L188.396,309.71387ZM206.625,320.9639L203.292,320.9639L203.292,314.6683Q203.292,312.1357,201.488,312.1357Q200.655,312.1357,200.095,312.904Q199.542,313.6722,199.542,314.779L199.542,320.9639L196.625,320.9639L196.625,314.5902Q196.625,312.1357,194.835,312.1357Q193.943,312.1357,193.409,312.8714Q192.875,313.6006,192.875,314.8115L192.875,320.9639L189.542,320.9639L189.542,309.71387L192.725,309.71387L192.725,311.667L192.764,311.667Q193.337,310.736,194.281,310.2282Q195.225,309.71387,196.267,309.71387Q198.559,309.71387,199.405,311.7581Q200.668,309.71387,203.07,309.71387Q206.625,309.71387,206.625,314.141L206.625,320.9639ZM209.125,320.9639L209.125,304.71387L212.458,304.71387L212.458,320.9639L209.125,320.9639Z" fill="#FFFFFF" fill-opacity="1"/></g><g style="mix-blend-mode:passthrough"><path d="M379.7409,410.6748L374.4479,410.6748L374.4479,413.2139L380.19010000000003,413.2139L380.19010000000003,415.6748L374.4479,415.6748L374.4479,419.4639L371.694,419.4639L371.694,405.7334L371.1211,405.7334Q369.9167,408.3506,368.3932,410.2972Q367.8268,409.2686,366.8893,407.8623Q369.1159,404.59408,370.3659,400.2972L372.9049,400.90267Q372.5339,402.11361,372.1237,403.21387L380.8542,403.21387L380.8542,405.7334L374.4479,405.7334L374.4479,408.2139L379.7409,408.2139L379.7409,410.6748ZM365.2878,400.2972L367.9049,401.05892Q367.2799,403.02507,366.4987,404.87402L366.4987,419.4639L363.8424,419.4639L363.8424,409.9326Q363.0417,411.1891,362.1432,412.3805Q361.9284,410.9092,361.4792,408.8193Q363.8424,405.16048,365.2878,400.2972ZM399.6823,416.4495Q399.6823,417.693,399.1159,418.3701Q398.54949999999997,419.0472,397.3841,419.1644Q396.2188,419.2881,394.3112,419.262Q393.9792,417.8232,393.5299,416.5472Q395.5417,416.5472,395.7174,416.5472Q396.9479,416.5472,396.9479,415.3818L396.9479,413.6501L392.8854,413.6501L392.8854,419.1644L390.1315,419.1644L390.1315,413.6501L385.9062,413.6501Q385.6003,417.8102,384.25260000000003,419.4639Q383.00260000000003,418.5654,381.7331,417.8232Q383.31510000000003,415.6943,383.2565,410.2516L383.2565,401.13053L399.6823,401.13053L399.6823,416.4495ZM385.9909,406.1305L390.1315,406.1305L390.1315,403.70866L385.9909,403.70866L385.9909,406.1305ZM396.9479,403.70866L392.8854,403.70866L392.8854,406.1305L396.9479,406.1305L396.9479,403.70866ZM385.9909,411.1305L390.1315,411.1305L390.1315,408.6501L385.9909,408.6501L385.9909,411.1305ZM392.8854,411.1305L396.9479,411.1305L396.9479,408.6501L392.8854,408.6501L392.8854,411.1305ZM407.2214,403.21387L413.602,403.21387L413.53,400.2972L416.108,400.2972L416.18600000000004,403.21387L417.957,403.21387L416.79200000000003,401.39095L418.608,400.2972Q419.604,401.55371,420.171,402.361L418.882,403.21387L420.776,403.21387L420.776,405.6748L416.277,405.6748Q416.414,409.21,416.57,411.391Q417.592,409.2946,418.081,406.9639L420.26800000000003,407.5693Q419.246,411.5212,417.085,414.8219Q417.68399999999997,416.9639,418.23699999999997,416.9639Q418.68600000000004,416.9639,418.725,413.6305Q420.092,414.0537,420.835,414.2165Q420.835,419.7959,418.276,419.7959Q416.342,419.7959,415.249,417.3089Q414.233,418.4873,413.04200000000003,419.568Q412.397,418.7933,411.46,417.8688Q411.473,417.7386,411.492,417.6735L407.0065,418.318L406.8503,417.1201Q404.0768,417.4782,401.5182,417.9014L401.44010000000003,415.2842L402.9635,415.1149L402.9635,408.1748L401.5964,408.1748L401.5964,405.71387L402.9635,405.71387L402.9635,400.2972L405.5221,400.2972L405.5221,405.71387L406.6159,405.71387L406.6159,408.1748L405.5221,408.1748L405.5221,414.8415L406.9284,414.6266Q406.8893,414.9261,406.90229999999997,415.7074Q410.366,415.3102,413.217,414.8805L413.276,415.9678Q413.901,415.2907,414.461,414.5745Q413.94,411.7816,413.68600000000004,405.6748L407.2214,405.6748L407.2214,403.21387ZM407.2604,407.3805L412.846,407.3805L412.846,414.2165L407.2604,414.2165L407.2604,407.3805ZM410.776,409.2165L409.331,409.2165L409.331,412.3805L410.776,412.3805L410.776,409.2165ZM422,407.7907Q422,407.068,422.553,406.59929999999997Q423.113,406.1305,423.88800000000003,406.1305Q424.676,406.1305,425.21,406.59929999999997Q425.75,407.068,425.75,407.7907Q425.75,408.5394,425.21,409.0081Q424.676,409.4704,423.849,409.4704Q423.068,409.4704,422.534,408.9951Q422,408.5133,422,407.7907ZM422,415.2842Q422,414.5485,422.553,414.0798Q423.113,413.611,423.88800000000003,413.611Q424.676,413.611,425.21,414.0928Q425.75,414.568,425.75,415.2842Q425.75,416.0329,425.21,416.5016Q424.676,416.9639,423.849,416.9639Q423.087,416.9639,422.54,416.4886Q422,416.0068,422,415.2842ZM451.91499999999996,404.15137L448.947,404.15137L450.76300000000003,404.88704L449.533,406.5472L452.52099999999996,406.5472L452.52099999999996,408.7347L443.693,408.7347L445.802,409.3337L445.255,410.2972L452.326,410.2972L452.326,412.4847L450.366,412.4847Q449.728,414.2881,448.45799999999997,415.6683L452.247,417.2633L450.93899999999996,419.4639Q448.51,418.2464,446.44,417.2959Q443.86199999999997,418.8454,439.826,419.4639Q439.318,418.4222,438.595,417.2438Q441.603,416.8923,443.654,416.0329Q441.661,415.1605,440.118,414.6396Q440.776,413.5915,441.342,412.4847L439.318,412.4847L439.318,411.5537Q438.647,411.6969,437.911,411.8988L437.911,416.8792Q437.911,418.0381,437.41700000000003,418.6696Q436.928,419.3011,435.96500000000003,419.3857Q435.001,419.4704,433.712,419.5029Q433.536,418.2334,433.126,416.9183Q433.849,416.9639,434.409,416.9639Q435.001,416.9639,435.18399999999997,416.762Q435.372,416.5537,435.372,416.0068L435.372,412.374L433.43899999999996,413.2139L433.126,410.4209Q434.06399999999996,410.2516,435.372,409.9587L435.372,406.5472L433.43899999999996,406.5472L433.43899999999996,404.0472L435.372,404.0472L435.372,400.2972L437.911,400.2972L437.911,404.0472L439.572,404.0472L439.572,406.5472L437.911,406.5472L437.911,409.568L439.454,408.943Q439.428,409.6787,439.428,410.2972L442.384,410.2972Q442.716,409.5355,443.022,408.7347L439.337,408.7347L439.337,406.5472L442.111,406.5472Q441.538,405.51855,441.115,404.88704L442.736,404.15137L440.02099999999996,404.15137L440.02099999999996,401.96387L444.35699999999997,401.96387Q444.077,401.33887,443.77099999999996,400.78548L446.701,400.2972Q447.046,401.03288,447.378,401.96387L451.91499999999996,401.96387L451.91499999999996,404.15137ZM445.118,406.0133L443.901,406.5472L446.557,406.5472Q447.52099999999996,405.03027,447.99,404.15137L443.849,404.15137Q444.409,404.91309,445.118,406.0133ZM443.38,413.611L445.95799999999997,414.6527Q447.033,413.7152,447.553,412.4847L444.025,412.4847L443.38,413.611ZM454.51300000000003,419.0472L454.51300000000003,401.96387L471.173,401.96387L471.173,419.0472L468.243,419.0472L468.243,417.5563L457.443,417.5563L457.443,419.0472L454.51300000000003,419.0472ZM468.243,404.63965L457.443,404.63965L457.443,414.8805L468.243,414.8805L468.243,404.63965Z" fill="#FFFFFF" fill-opacity="1"/></g><g style="mix-blend-mode:passthrough"><path d="M629.9792,309.90918Q629.4584,314.4079,629.4584,315.6839Q629.4584,317.2139,630.3307,317.2139Q631.2292,317.2139,631.8021,316.068Q632.375,314.9157,632.375,313.1123Q632.375,310.5798,630.8451,308.96517Q629.3151,307.34408,626.5873,307.34408Q623.7031,307.34408,621.7891,309.45996Q619.875,311.5693,619.875,314.5837Q619.875,317.5589,621.6393,319.2646Q623.4102,320.9639,626.4505,320.9639Q628.7878,320.9639,630.7084,320.1305L630.7084,322.012Q628.9245,322.7607,626.086,322.7607Q622.1992,322.7607,619.7839,320.5277Q617.375,318.2881,617.375,314.5576Q617.375,310.7295,619.9271,308.13835Q622.4792,305.5472,626.5026,305.5472Q630.2526,305.5472,632.5638,307.611Q634.875,309.66829,634.875,312.9951Q634.875,315.723,633.4102,317.3766Q631.9518,319.0303,629.8099,319.0303Q628.7617,319.0303,628.0716,318.4704Q627.3815,317.904,627.3425,316.9469L627.2709,316.9469Q626.5677000000001,319.0042,624.6537,319.0042Q623.2474,319.0042,622.3946,317.9626Q621.5417,316.9144,621.5417,315.0785Q621.5417,312.7021,622.7266,311.2113Q623.9115,309.71387,625.6172,309.71387Q627.1602,309.71387,627.5378,310.9769L627.5899,310.9769Q627.6485,310.723,627.7396,310.4561Q627.8373,310.1956,627.8959,309.90918L629.9792,309.90918ZM624.0417,315.0654Q624.0417,316.0615,624.4063,316.641Q624.7709,317.2139,625.3959,317.2139Q626.3138,317.2139,626.8412,316.1396Q627.375,315.0654,627.375,313.3011Q627.375,312.4352,627.0104,311.96Q626.6459,311.4847,626.0339,311.4847Q625.168,311.4847,624.6016,312.5394Q624.0417,313.5876,624.0417,315.0654ZM650.2917,319.6943Q648.0586,320.9639,644.8034,320.9639Q641.1641,320.9639,639.0612,318.9652Q636.9583,316.96,636.9583,313.4834Q636.9583,309.96126,639.2435,307.75423Q641.5287,305.5472,645.2591,305.5472Q647.6615,305.5472,649.4583,306.19824L649.4583,309.09538Q647.707,308.26204,645.1745,308.26204Q643,308.26204,641.6458,309.65527Q640.2917,311.0485,640.2917,313.3337Q640.2917,315.6514,641.5222,316.9535Q642.7591,318.249,644.888,318.249Q646.1511,318.249,646.9583,317.8324L646.9583,314.805L644.0417,314.805L644.0417,312.2139L650.2917,312.2139L650.2917,319.6943ZM662.375,316.2699L655.7084,316.2699Q655.8646,318.6982,658.5664,318.6982Q660.2526,318.6982,661.5417,317.8649L661.5417,320.1436Q660.0899,320.9639,657.7331,320.9639Q655.194,320.9639,653.7813,319.5186Q652.375,318.0732,652.375,315.4951Q652.375,312.9235,653.8594,311.3219Q655.3503000000001,309.71387,657.6029,309.71387Q659.849,309.71387,661.112,311.1071Q662.375,312.5003,662.375,314.9287L662.375,316.2699ZM659.4584,314.2972Q659.4584,311.8753,657.694,311.8753Q656.9584,311.8753,656.3985,312.5394Q655.8386,313.2035,655.6953,314.2972L659.4584,314.2972ZM671.125,320.5602Q670.3828,320.9639,668.8724,320.9639Q665.2917,320.9639,665.2917,317.2725L665.2917,312.0706L663.625,312.0706L663.625,309.71387L665.2917,309.71387L665.2917,307.2985L668.625,306.38053L668.625,309.71387L671.125,309.71387L671.125,312.0706L668.625,312.0706L668.625,316.7516Q668.625,318.529,670.0117,318.529Q670.5521,318.529,671.125,318.1123L671.125,320.5602ZM678.1237,321.6475L676.1055,323.6331Q674.6602,322.0381,672.2253000000001,319.8311L674.1393,317.9951Q675.8581,319.3102,678.1237,321.6475ZM705.813,309.90918Q705.292,314.4079,705.292,315.6839Q705.292,317.2139,706.164,317.2139Q707.063,317.2139,707.635,316.068Q708.208,314.9157,708.208,313.1123Q708.208,310.5798,706.678,308.96517Q705.148,307.34408,702.421,307.34408Q699.5360000000001,307.34408,697.622,309.45996Q695.708,311.5693,695.708,314.5837Q695.708,317.5589,697.473,319.2646Q699.2429999999999,320.9639,702.284,320.9639Q704.621,320.9639,706.542,320.1305L706.542,322.012Q704.758,322.7607,701.919,322.7607Q698.033,322.7607,695.617,320.5277Q693.208,318.2881,693.208,314.5576Q693.208,310.7295,695.76,308.13835Q698.313,305.5472,702.336,305.5472Q706.086,305.5472,708.397,307.611Q710.708,309.66829,710.708,312.9951Q710.708,315.723,709.2429999999999,317.3766Q707.785,319.0303,705.643,319.0303Q704.595,319.0303,703.905,318.4704Q703.215,317.904,703.176,316.9469L703.104,316.9469Q702.401,319.0042,700.487,319.0042Q699.081,319.0042,698.228,317.9626Q697.375,316.9144,697.375,315.0785Q697.375,312.7021,698.56,311.2113Q699.745,309.71387,701.451,309.71387Q702.9929999999999,309.71387,703.371,310.9769L703.423,310.9769Q703.482,310.723,703.573,310.4561Q703.671,310.1956,703.729,309.90918L705.813,309.90918ZM699.875,315.0654Q699.875,316.0615,700.24,316.641Q700.604,317.2139,701.229,317.2139Q702.147,317.2139,702.674,316.1396Q703.208,315.0654,703.208,313.3011Q703.208,312.4352,702.844,311.96Q702.479,311.4847,701.867,311.4847Q701.001,311.4847,700.435,312.5394Q699.875,313.5876,699.875,315.0654ZM716.958,315.5212L716.958,320.9639L713.625,320.9639L713.625,305.5472L719.0219999999999,305.5472Q724.875,305.5472,724.875,310.391Q724.875,312.7412,723.104,314.1605Q721.34,315.5798,718.684,315.5212L716.958,315.5212ZM716.965,308.0472L716.965,313.0472L718.475,313.0472Q721.542,313.0472,721.542,310.5146Q721.542,308.0472,718.501,308.0472L716.965,308.0472ZM726.125,315.3844Q726.125,312.7412,727.733,311.2308Q729.348,309.71387,732.069,309.71387Q734.6990000000001,309.71387,736.242,311.2048Q737.792,312.6891,737.792,315.2021Q737.792,317.8389,736.203,319.4014Q734.621,320.9639,731.906,320.9639Q729.25,320.9639,727.688,319.4665Q726.125,317.9691,726.125,315.3844ZM729.458,315.3454Q729.458,318.54200000000003,732.01,318.54200000000003Q734.458,318.54200000000003,734.458,315.2607Q734.458,312.1357,731.991,312.1357Q730.793,312.1357,730.1220000000001,312.9756Q729.458,313.8154,729.458,315.3454ZM739.875,317.9495Q741.457,318.7829,742.967,318.7829Q744.875,318.7829,744.875,317.7607Q744.875,317.0316,743.306,316.5433Q741.34,315.9248,740.604,315.1631Q739.875,314.3949,739.875,313.0928Q739.875,311.5107,741.086,310.6123Q742.303,309.71387,744.27,309.71387Q745.663,309.71387,746.958,310.1696L746.958,312.7282Q745.78,311.8949,744.361,311.8949Q743.6510000000001,311.8949,743.221,312.1423Q742.792,312.3831,742.792,312.78679999999997Q742.792,313.4639,744.139,313.8805Q745.578,314.3753,746.3009999999999,314.7855Q747.03,315.1891,747.408,315.8532Q747.792,316.5173,747.792,317.3896Q747.792,319.0889,746.49,320.0264Q745.194,320.9639,743.0260000000001,320.9639Q741.327,320.9639,739.875,320.4365L739.875,317.9495ZM756.542,320.5602Q755.799,320.9639,754.289,320.9639Q750.708,320.9639,750.708,317.2725L750.708,312.0706L749.042,312.0706L749.042,309.71387L750.708,309.71387L750.708,307.2985L754.042,306.38053L754.042,309.71387L756.542,309.71387L756.542,312.0706L754.042,312.0706L754.042,316.7516Q754.042,318.529,755.428,318.529Q755.969,318.529,756.542,318.1123L756.542,320.5602ZM763.625,319.2842Q763.625,318.5485,764.178,318.0798Q764.738,317.611,765.513,317.611Q766.3009999999999,317.611,766.835,318.0928Q767.375,318.568,767.375,319.2842Q767.375,320.0329,766.835,320.5016Q766.3009999999999,320.9639,765.4739999999999,320.9639Q764.712,320.9639,764.165,320.4886Q763.625,320.0068,763.625,319.2842ZM769.458,319.2842Q769.458,318.5485,770.012,318.0798Q770.572,317.611,771.346,317.611Q772.134,317.611,772.668,318.0928Q773.208,318.568,773.208,319.2842Q773.208,320.0329,772.668,320.5016Q772.134,320.9639,771.307,320.9639Q770.546,320.9639,769.999,320.4886Q769.458,320.0068,769.458,319.2842ZM775.292,319.2842Q775.292,318.5485,775.845,318.0798Q776.405,317.611,777.1800000000001,317.611Q777.967,317.611,778.501,318.0928Q779.042,318.568,779.042,319.2842Q779.042,320.0329,778.501,320.5016Q777.967,320.9639,777.141,320.9639Q776.379,320.9639,775.832,320.4886Q775.292,320.0068,775.292,319.2842Z" fill="#FFFFFF" fill-opacity="1"/></g><g style="mix-blend-mode:passthrough"><path d="M100.7409,410.6748L95.4479,410.6748L95.4479,413.2139L101.1901,413.2139L101.1901,415.6748L95.4479,415.6748L95.4479,419.4639L92.694,419.4639L92.694,405.7334L92.1211,405.7334Q90.91669999999999,408.3506,89.39320000000001,410.2972Q88.82679999999999,409.2686,87.88929999999999,407.8623Q90.11590000000001,404.59408,91.36590000000001,400.2972L93.9049,400.90267Q93.5339,402.11361,93.1237,403.21387L101.8542,403.21387L101.8542,405.7334L95.4479,405.7334L95.4479,408.2139L100.7409,408.2139L100.7409,410.6748ZM86.2878,400.2972L88.9049,401.05892Q88.2799,403.02507,87.4987,404.87402L87.4987,419.4639L84.8424,419.4639L84.8424,409.9326Q84.04169999999999,411.1891,83.14320000000001,412.3805Q82.92840000000001,410.9092,82.47919999999999,408.8193Q84.8424,405.16048,86.2878,400.2972ZM120.6823,416.4495Q120.6823,417.693,120.1159,418.3701Q119.5495,419.0472,118.3841,419.1644Q117.2188,419.2881,115.3112,419.262Q114.9792,417.8232,114.5299,416.5472Q116.5417,416.5472,116.7174,416.5472Q117.9479,416.5472,117.9479,415.3818L117.9479,413.6501L113.8854,413.6501L113.8854,419.1644L111.1315,419.1644L111.1315,413.6501L106.9062,413.6501Q106.6003,417.8102,105.2526,419.4639Q104.0026,418.5654,102.7331,417.8232Q104.3151,415.6943,104.2565,410.2516L104.2565,401.13053L120.6823,401.13053L120.6823,416.4495ZM106.9909,406.1305L111.1315,406.1305L111.1315,403.70866L106.9909,403.70866L106.9909,406.1305ZM117.9479,403.70866L113.8854,403.70866L113.8854,406.1305L117.9479,406.1305L117.9479,403.70866ZM106.9909,411.1305L111.1315,411.1305L111.1315,408.6501L106.9909,408.6501L106.9909,411.1305ZM113.8854,411.1305L117.9479,411.1305L117.9479,408.6501L113.8854,408.6501L113.8854,411.1305ZM128.22140000000002,403.21387L134.602,403.21387L134.53,400.2972L137.108,400.2972L137.186,403.21387L138.957,403.21387L137.792,401.39095L139.608,400.2972Q140.60399999999998,401.55371,141.171,402.361L139.882,403.21387L141.776,403.21387L141.776,405.6748L137.277,405.6748Q137.414,409.21,137.57,411.391Q138.59199999999998,409.2946,139.08100000000002,406.9639L141.268,407.5693Q140.24599999999998,411.5212,138.08499999999998,414.8219Q138.684,416.9639,139.237,416.9639Q139.686,416.9639,139.725,413.6305Q141.09199999999998,414.0537,141.83499999999998,414.2165Q141.83499999999998,419.7959,139.276,419.7959Q137.34199999999998,419.7959,136.249,417.3089Q135.233,418.4873,134.042,419.568Q133.397,418.7933,132.45999999999998,417.8688Q132.473,417.7386,132.49200000000002,417.6735L128.00650000000002,418.318L127.8503,417.1201Q125.0768,417.4782,122.5182,417.9014L122.4401,415.2842L123.9635,415.1149L123.9635,408.1748L122.5964,408.1748L122.5964,405.71387L123.9635,405.71387L123.9635,400.2972L126.5221,400.2972L126.5221,405.71387L127.6159,405.71387L127.6159,408.1748L126.5221,408.1748L126.5221,414.8415L127.9284,414.6266Q127.8893,414.9261,127.9023,415.7074Q131.36599999999999,415.3102,134.21699999999998,414.8805L134.276,415.9678Q134.901,415.2907,135.461,414.5745Q134.94,411.7816,134.686,405.6748L128.22140000000002,405.6748L128.22140000000002,403.21387ZM128.2604,407.3805L133.846,407.3805L133.846,414.2165L128.2604,414.2165L128.2604,407.3805ZM131.776,409.2165L130.33100000000002,409.2165L130.33100000000002,412.3805L131.776,412.3805L131.776,409.2165ZM143,407.7907Q143,407.068,143.553,406.59929999999997Q144.113,406.1305,144.888,406.1305Q145.676,406.1305,146.20999999999998,406.59929999999997Q146.75,407.068,146.75,407.7907Q146.75,408.5394,146.20999999999998,409.0081Q145.676,409.4704,144.849,409.4704Q144.06799999999998,409.4704,143.534,408.9951Q143,408.5133,143,407.7907ZM143,415.2842Q143,414.5485,143.553,414.0798Q144.113,413.611,144.888,413.611Q145.676,413.611,146.20999999999998,414.0928Q146.75,414.568,146.75,415.2842Q146.75,416.0329,146.20999999999998,416.5016Q145.676,416.9639,144.849,416.9639Q144.087,416.9639,143.54000000000002,416.4886Q143,416.0068,143,415.2842ZM154.986,416.5472L162.368,416.5472L162.368,414.4639L156.548,414.4639L156.548,411.9639L162.368,411.9639L162.368,409.8805L158.599,409.8805L158.599,408.3376Q157.31,409.3402,155.845,410.2972Q155.279,409.5355,154.107,408.1162Q160.357,404.65918,162.583,400.71387L166.001,400.71387L165.493,401.45605Q168.013,405.07585,173.56,407.68Q172.525,408.9105,171.802,409.8805Q170.337,409.1188,169.068,408.279L169.068,409.8805L165.279,409.8805L165.279,411.9639L171.158,411.9639L171.158,414.4639L165.279,414.4639L165.279,416.5472L172.681,416.5472L172.681,419.0472L154.986,419.0472L154.986,416.5472ZM163.833,403.52637Q162.232,405.53158,159.849,407.3805L167.818,407.3805Q165.474,405.6097,163.833,403.52637ZM175.943,401.13053L191.861,401.13053L191.861,407.1266L178.716,407.1266Q178.71,407.6865,178.71,408.2139L192.74,408.2139L192.616,416.0199Q192.583,417.5173,192.16,418.1748Q191.743,418.8389,191.112,419.1318Q190.487,419.4248,186.197,419.4248Q186.021,418.2139,185.689,416.8857Q187.564,416.9639,188.397,416.9639Q189.009,416.9639,189.328,416.736Q189.654,416.5081,189.738,416.1826Q189.829,415.8571,189.882,412.68L189.908,410.46L178.651,410.46Q178.638,416.2021,176.294,419.4639Q175.025,418.0837,174.146,417.22429999999997Q175.161,415.5446,175.539,413.4938Q175.923,411.443,175.943,407.3936L175.943,401.13053ZM189.087,404.88053L189.087,403.37663L178.716,403.37663L178.716,404.88053L189.087,404.88053ZM187.896,411.5472L187.896,416.2412L182.349,416.2412L182.349,417.1787L179.849,417.1787L179.849,411.5472L187.896,411.5472ZM182.349,413.3245L182.349,414.4639L185.396,414.4639L185.396,413.3245L182.349,413.3245Z" fill="#FFFFFF" fill-opacity="1"/></g><g style="mix-blend-mode:passthrough"><path d="M662.7409,410.6748L657.4479,410.6748L657.4479,413.2139L663.1901,413.2139L663.1901,415.6748L657.4479,415.6748L657.4479,419.4639L654.694,419.4639L654.694,405.7334L654.1211,405.7334Q652.9167,408.3506,651.3932,410.2972Q650.8268,409.2686,649.8893,407.8623Q652.1159,404.59408,653.3659,400.2972L655.9049,400.90267Q655.5339,402.11361,655.1237,403.21387L663.8542,403.21387L663.8542,405.7334L657.4479,405.7334L657.4479,408.2139L662.7409,408.2139L662.7409,410.6748ZM648.2878,400.2972L650.9049,401.05892Q650.2799,403.02507,649.4987,404.87402L649.4987,419.4639L646.8424,419.4639L646.8424,409.9326Q646.0417,411.1891,645.1432,412.3805Q644.9284,410.9092,644.4792,408.8193Q646.8424,405.16048,648.2878,400.2972ZM682.6822999999999,416.4495Q682.6822999999999,417.693,682.1159,418.3701Q681.5495,419.0472,680.3841,419.1644Q679.2188,419.2881,677.3112,419.262Q676.9792,417.8232,676.5299,416.5472Q678.5417,416.5472,678.7174,416.5472Q679.9479,416.5472,679.9479,415.3818L679.9479,413.6501L675.8854,413.6501L675.8854,419.1644L673.1315,419.1644L673.1315,413.6501L668.9062,413.6501Q668.6003000000001,417.8102,667.2526,419.4639Q666.0026,418.5654,664.7331,417.8232Q666.3151,415.6943,666.2565,410.2516L666.2565,401.13053L682.6822999999999,401.13053L682.6822999999999,416.4495ZM668.9909,406.1305L673.1315,406.1305L673.1315,403.70866L668.9909,403.70866L668.9909,406.1305ZM679.9479,403.70866L675.8854,403.70866L675.8854,406.1305L679.9479,406.1305L679.9479,403.70866ZM668.9909,411.1305L673.1315,411.1305L673.1315,408.6501L668.9909,408.6501L668.9909,411.1305ZM675.8854,411.1305L679.9479,411.1305L679.9479,408.6501L675.8854,408.6501L675.8854,411.1305ZM690.2214,403.21387L696.602,403.21387L696.53,400.2972L699.108,400.2972L699.186,403.21387L700.957,403.21387L699.792,401.39095L701.608,400.2972Q702.604,401.55371,703.171,402.361L701.8820000000001,403.21387L703.776,403.21387L703.776,405.6748L699.277,405.6748Q699.414,409.21,699.5699999999999,411.391Q700.592,409.2946,701.081,406.9639L703.268,407.5693Q702.246,411.5212,700.085,414.8219Q700.684,416.9639,701.237,416.9639Q701.686,416.9639,701.725,413.6305Q703.092,414.0537,703.835,414.2165Q703.835,419.7959,701.276,419.7959Q699.342,419.7959,698.249,417.3089Q697.233,418.4873,696.042,419.568Q695.397,418.7933,694.46,417.8688Q694.473,417.7386,694.492,417.6735L690.0065,418.318L689.8503000000001,417.1201Q687.0768,417.4782,684.5182,417.9014L684.4401,415.2842L685.9635,415.1149L685.9635,408.1748L684.5964,408.1748L684.5964,405.71387L685.9635,405.71387L685.9635,400.2972L688.5221,400.2972L688.5221,405.71387L689.6159,405.71387L689.6159,408.1748L688.5221,408.1748L688.5221,414.8415L689.9284,414.6266Q689.8893,414.9261,689.9023,415.7074Q693.366,415.3102,696.217,414.8805L696.276,415.9678Q696.901,415.2907,697.461,414.5745Q696.94,411.7816,696.686,405.6748L690.2214,405.6748L690.2214,403.21387ZM690.2604,407.3805L695.846,407.3805L695.846,414.2165L690.2604,414.2165L690.2604,407.3805ZM693.776,409.2165L692.331,409.2165L692.331,412.3805L693.776,412.3805L693.776,409.2165ZM705,407.7907Q705,407.068,705.553,406.59929999999997Q706.113,406.1305,706.888,406.1305Q707.676,406.1305,708.21,406.59929999999997Q708.75,407.068,708.75,407.7907Q708.75,408.5394,708.21,409.0081Q707.676,409.4704,706.849,409.4704Q706.068,409.4704,705.534,408.9951Q705,408.5133,705,407.7907ZM705,415.2842Q705,414.5485,705.553,414.0798Q706.113,413.611,706.888,413.611Q707.676,413.611,708.21,414.0928Q708.75,414.568,708.75,415.2842Q708.75,416.0329,708.21,416.5016Q707.676,416.9639,706.849,416.9639Q706.087,416.9639,705.54,416.4886Q705,416.0068,705,415.2842ZM721.029,406.9639L726.79,406.9639L726.79,406.1436L722.1030000000001,406.1436L722.1030000000001,404.46387L726.79,404.46387L726.79,403.64355L721.654,403.64355L721.654,401.96387L726.79,401.96387L726.79,400.2972L729.583,400.2972L729.583,401.96387L735.072,401.96387L735.072,403.64355L729.583,403.64355L729.583,404.46387L734.544,404.46387L734.544,406.1436L729.583,406.1436L729.583,406.9639L735.54,406.9639L735.54,408.6436L721.029,408.6436L721.029,406.9639ZM718.763,400.71387Q720.111,402.49772,721.283,404.34668L718.997,405.71387Q717.884,403.68913,716.654,401.94434L718.763,400.71387ZM721.634,413.6305Q721.712,415.3883,721.8679999999999,416.6383Q719.837,418.1423,718.626,419.568L717.22,417.6214Q717.747,416.9443,717.747,415.9482L717.747,409.5029L716.146,409.5029L716.146,406.9639L720.208,406.9639L720.208,414.8154Q720.794,414.3467,721.634,413.6305ZM725.052,419.3337L722.435,419.3337L722.435,409.4639L734.095,409.4639L734.095,416.7035Q734.095,417.8883,733.5550000000001,418.5133Q733.021,419.1449,732.031,419.22950000000003Q731.042,419.3141,728.001,419.3337Q727.7860000000001,418.4873,727.415,417.3805Q729.896,417.3805,730.384,417.3805Q731.4780000000001,417.3805,731.4780000000001,416.3584L731.4780000000001,416.085L725.052,416.085L725.052,419.3337ZM731.4780000000001,411.2998L725.052,411.2998L725.052,411.9639L731.4780000000001,411.9639L731.4780000000001,411.2998ZM725.052,414.4639L731.4780000000001,414.4639L731.4780000000001,413.585L725.052,413.585L725.052,414.4639ZM754.954,408.4548L750.495,411.8076Q752.565,413.6891,755.54,414.6722Q754.74,415.8962,753.919,417.3805Q749.486,415.34929999999997,747.083,411.1826L747.083,415.8831Q747.083,417.4977,746.367,418.3701Q745.658,419.2425,744.121,419.3467Q742.585,419.4574,741.146,419.4574Q740.8530000000001,417.8949,740.443,416.4691Q741.771,416.5472,742.7280000000001,416.5472Q744.3489999999999,416.5472,744.3489999999999,414.9782L744.3489999999999,413.2008Q740.319,415.5316,737.415,417.3805L736.126,414.8024Q740.6179999999999,412.5758,744.3489999999999,410.193L744.3489999999999,406.0524L736.458,406.0524L736.458,403.63053L744.3489999999999,403.63053L744.3489999999999,400.2972L747.083,400.2972L747.083,403.63053L751.302,403.63053Q750.15,402.71257,748.861,401.8597L750.579,400.2972Q752.005,401.18262,753.509,402.32845L752.096,403.63053L755.2470000000001,403.63053L755.2470000000001,406.0524L747.083,406.0524L747.083,406.736Q747.799,408.5719,748.893,410.0303Q751.126,408.3701,753.04,406.5472L754.954,408.4548ZM739.095,406.5472Q741.087,408.1292,742.904,409.835L741.107,411.5472Q739.408,409.8675,737.435,408.16179999999997L739.095,406.5472Z" fill="#FFFFFF" fill-opacity="1"/></g><g style="mix-blend-mode:passthrough"><path d="M831,123L1622.0729999999999,123L1622.0729999999999,138L1662,104L1622.0729999999999,69L1622.0729999999999,85L831,85L831,123Z" transform="matrix(-1,0,0,-1,1662,138)" fill="#7B7B7B" fill-opacity="1"/></g><g style="mix-blend-mode:passthrough"><path d="M1,558L791.121,558L791.121,573L831,539L791.121,504L791.121,520L1,520L1,558Z" fill="#7B7B7B" fill-opacity="1"/></g><g style="mix-blend-mode:passthrough"><path d="M388.95508,27.16748L391.38086,27.87061Q390.57227,30.2085,389.5,32.271L389.5,42.1733Q392.67578,39.5015,393.01562,33.9702L390.13281,33.9702L390.13281,31.667479999999998L393.0625,31.667479999999998Q393.10352,29.40576,393.10352,27.16748L395.459,27.16748Q395.459,27.771,395.4062,31.667479999999998L402.4023,31.667479999999998L402.4023,33.9702L398.5176,33.9702L398.5176,40.9487Q398.5176,41.792500000000004,399.1504,41.792500000000004L399.4844,41.792500000000004Q399.9883,41.792500000000004,400.1113,41.446799999999996Q400.2344,41.0952,400.4863,38.417500000000004Q401.541,38.9097,402.6836,39.3315Q402.4141,41.4761,402.209,42.355000000000004Q402.0098,43.2397,401.3945,43.6147Q400.7852,43.9897,399.8711,43.9897L398.377,43.9897Q396.1621,43.9897,396.1621,41.5054L396.1621,33.9702L395.4238,33.9702Q395.2246,40.8198,391.16992,44.3999Q390.27344,43.187,389.5,42.314L389.5,44.417500000000004L387.14453,44.417500000000004L387.14453,36.0972Q386.54102,36.9116,385.878906,37.667500000000004Q385.615234,36.167500000000004,385.228516,34.515100000000004Q387.37305,31.90186,388.95508,27.16748ZM398.2539,27.16748Q399.959,28.12842,401.4004,29.25342L399.9062,30.91748Q399.1152,30.27881,396.9004,28.63818L398.2539,27.16748ZM410.9453,27.16748L413.5469,27.16748L413.5469,30.16748L419.418,30.16748L419.418,32.3999L413.5469,32.3999L413.5469,35.042500000000004L420.5078,35.042500000000004L420.5078,37.292500000000004L415.6211,37.292500000000004L415.6211,40.7964Q415.6211,41.8101,416.3418,41.792500000000004L417.1152,41.792500000000004Q417.6367,41.792500000000004,417.9121,41.3999Q418.1875,41.0073,418.5039,38.792500000000004Q419.6992,39.3022,420.7715,39.6714Q420.2266,42.5659,419.6172,43.2983Q419.0137,44.0366,417.8887,44.0601L415.9199,44.0601Q413.0547,44.0601,413.0547,41.4116L413.0547,37.292500000000004L410.6641,37.292500000000004Q410.6289,42.5894,405.1973,44.792500000000004Q404.2656,43.7202,403.3867,42.812Q407.9922,41.0308,408.0801,37.292500000000004L403.4922,37.292500000000004L403.4922,35.042500000000004L410.9453,35.042500000000004L410.9453,32.3999L407.2305,32.3999Q406.5859,33.6304,405.8125,34.667500000000004Q404.4766,33.7183,403.8438,33.3315Q405.7422,30.41943,406.5156,27.54248L408.8711,28.03467Q408.5723,29.14795,408.2031,30.16748L410.9453,30.16748L410.9453,27.16748ZM421.2637,41.259299999999996Q424.1992,40.8315,426.8887,40.292500000000004Q426.8184,41.077600000000004,426.7832,41.8042Q428.5059,38.5171,428.7695,33.3022Q428.8047,32.43506,428.8223,30.45459L427.5742,30.45459L427.5742,28.29248L436.9961,28.29248L436.9961,30.31396L435.6426,33.167500000000004L438.0859,33.167500000000004L438.0859,35.259299999999996Q437.4531,38.2183,435.7832,40.4917Q437.1719,41.669399999999996,438.7715,42.278800000000004Q437.7695,43.556200000000004,437.2246,44.417500000000004Q435.5723,43.5327,434.2363,42.231899999999996Q432.6895,43.6792,430.5801,44.792500000000004Q429.8594,43.6499,429.1211,42.7417Q431.248,41.7515,432.707,40.3511Q431.5117,38.5054,430.668,36.1147Q430.123,41.716300000000004,427.5215,44.7573Q426.7656,43.6499,426.0098,42.8589L421.6855,43.667500000000004L421.2637,41.259299999999996ZM423.7598,32.79248Q424.41020000000003,32.7749,425.2363,32.73975Q425.8164,31.73779,426.4844,30.54248L428.4355,31.61475Q426.2031,35.2827,424.7266,37.0933Q426.2207,37.0171,427.4336,36.917500000000004Q427.293,37.778800000000004,427.2578,38.8862Q423.9004,39.1733,422.125,39.542500000000004L421.5449,37.556200000000004Q422.5645,36.7417,423.9355,34.7964Q422.65229999999997,34.919399999999996,421.8613,35.042500000000004L421.2109,33.0386Q422.5645,31.26904,424.1816,27.16748L426.3789,28.04639Q424.7969,31.07568,423.7598,32.79248ZM431.1074,31.72021Q432.4609,36.243700000000004,434.1484,38.6987Q435.1855,37.1753,435.625,35.294399999999996L433.0586,35.294399999999996L433.0586,33.0737L434.2891,30.45459L431.125,30.45459Q431.125,31.07568,431.1074,31.72021Z" fill="#FFFFFF" fill-opacity="1"/></g><g style="mix-blend-mode:passthrough"><path d="M401.7168,539.5073L396.9531,539.5073L396.9531,541.7925L402.1211,541.7925L402.1211,544.0073L396.9531,544.0073L396.9531,547.4175L394.47461,547.4175L394.47461,535.06006L393.95898,535.06006Q392.875,537.4155,391.50391,539.1675Q390.99414,538.2417,390.15039,536.9761Q392.1543,534.03467,393.2793,530.16748L395.5645,530.7124Q395.2305,531.80225,394.86133,532.79248L402.7188,532.79248L402.7188,535.06006L396.9531,535.06006L396.9531,537.2925L401.7168,537.2925L401.7168,539.5073ZM388.70898,530.16748L391.06445,530.85303Q390.50195,532.62256,389.79883,534.28662L389.79883,547.4175L387.4082,547.4175L387.4082,538.8394Q386.6875,539.9702,385.878906,541.0425Q385.685547,539.7183,385.28125,537.8374Q387.4082,534.54443,388.70898,530.16748ZM419.6641,544.7046Q419.6641,545.8237,419.1543,546.4331Q418.6445,547.0425,417.5957,547.1479Q416.5469,547.2593,414.8301,547.2358Q414.5312,545.9409,414.127,544.7925Q415.9375,544.7925,416.0957,544.7925Q417.2031,544.7925,417.2031,543.7437L417.2031,542.1851L413.5469,542.1851L413.5469,547.1479L411.0684,547.1479L411.0684,542.1851L407.2656,542.1851Q406.9902,545.9292,405.7773,547.4175Q404.6523,546.6089,403.5098,545.9409Q404.9336,544.0249,404.8809,539.1265L404.8809,530.91748L419.6641,530.91748L419.6641,544.7046ZM407.3418,535.41748L411.0684,535.41748L411.0684,533.23779L407.3418,533.23779L407.3418,535.41748ZM417.2031,533.23779L413.5469,533.23779L413.5469,535.41748L417.2031,535.41748L417.2031,533.23779ZM407.3418,539.9175L411.0684,539.9175L411.0684,537.6851L407.3418,537.6851L407.3418,539.9175ZM413.5469,539.9175L417.2031,539.9175L417.2031,537.6851L413.5469,537.6851L413.5469,539.9175ZM426.4492,532.79248L432.1914,532.79248L432.127,530.16748L434.4473,530.16748L434.5176,532.79248L436.1113,532.79248L435.0625,531.15186L436.6973,530.16748Q437.5938,531.29834,438.1035,532.0249L436.9434,532.79248L438.6484,532.79248L438.6484,535.00732L434.5996,535.00732Q434.72270000000003,538.189,434.8633,540.1519Q435.7832,538.2651,436.22270000000003,536.1675L438.1914,536.7124Q437.2715,540.269,435.3262,543.2397Q435.8652,545.1675,436.3633,545.1675Q436.7676,545.1675,436.8027,542.1675Q438.0332,542.5483,438.7012,542.6948Q438.7012,547.7163,436.3984,547.7163Q434.6582,547.7163,433.6738,545.478Q432.7598,546.5386,431.6875,547.5112Q431.1074,546.814,430.2637,545.9819Q430.2754,545.8647,430.293,545.8062L426.2559,546.3862L426.1152,545.3081Q423.6191,545.6304,421.3164,546.0112L421.2461,543.6558L422.6172,543.5034L422.6172,537.2573L421.3867,537.2573L421.3867,535.04248L422.6172,535.04248L422.6172,530.16748L424.9199,530.16748L424.9199,535.04248L425.9043,535.04248L425.9043,537.2573L424.9199,537.2573L424.9199,543.2573L426.1855,543.064Q426.1504,543.3335,426.1621,544.0366Q429.2793,543.6792,431.8457,543.2925L431.8984,544.271Q432.4609,543.6616,432.96479999999997,543.0171Q432.4961,540.5034,432.2676,535.00732L426.4492,535.00732L426.4492,532.79248ZM426.4844,536.5425L431.5117,536.5425L431.5117,542.6948L426.4844,542.6948L426.4844,536.5425ZM429.6484,538.1948L428.34770000000003,538.1948L428.34770000000003,541.0425L429.6484,541.0425L429.6484,538.1948Z" fill="#FFFFFF" fill-opacity="1"/></g></g></g></svg>