<?xml version="1.0" standalone="no"?><?xml-stylesheet type="text/css" href="https://www.processon.com/themes/default/mind/icons/icons.css" ?><!DOCTYPE svg PUBLIC "-//W3C//DTD SVG 1.1//EN" "http://www.w3.org/Graphics/SVG/1.1/DTD/svg11.dtd"><svg id="SvgjsSvg1464" xmlns="http://www.w3.org/2000/svg" version="1.1" xmlns:xlink="http://www.w3.org/1999/xlink" xmlns:svgjs="http://svgjs.com/svgjs" width="733" height="396"><rect fill="url(#pattern_mark)" transform="translate(-108,-236)" width="1081" height="1500" id="rect_mark" pointer-events="none"></rect><defs id="SvgjsDefs1465"><pattern patternUnits="userSpaceOnUse" id="pattern_mark" width="300" height="300"><text x="-50" y="150" fill="rgba(229,229,229,0.8)" font-size="18" transform="rotate(-45, 150, 150)"></text></pattern></defs><g id="SvgjsG1466" transform="translate(610,219)"><path id="SvgjsPath1467" d="M0 4Q0 0 4 0L64.3125 0Q68.3125 0 68.3125 4L68.3125 51Q68.3125 55 64.3125 55L4 55Q0 55 0 51Z " stroke="none" fill-opacity="1" fill="#464353"></path><g id="SvgjsG1468"><text id="SvgjsText1469" font-family="微软雅黑" text-anchor="middle" font-size="13px" width="49px" fill="#323232" font-weight="400" align="middle" lineHeight="125%" font-style="" opacity="1" y="17.875" transform="rotate(0)"></text></g></g><g id="SvgjsG1470" transform="translate(426,25)"><path id="SvgjsPath1471" d="M0 4Q0 0 4 0L142 0Q146 0 146 4L146 51Q146 55 142 55L4 55Q0 55 0 51Z " stroke="none" fill-opacity="1" fill="#464353"></path><g id="SvgjsG1472"><text id="SvgjsText1473" font-family="微软雅黑" text-anchor="middle" font-size="13px" width="126px" fill="#323232" font-weight="400" align="middle" lineHeight="125%" font-style="" opacity="1" y="17.875" transform="rotate(0)"></text></g></g><g id="SvgjsG1474" transform="translate(282.875,25)"><path id="SvgjsPath1475" d="M0 4Q0 0 4 0L123.125 0Q127.125 0 127.125 4L127.125 51Q127.125 55 123.125 55L4 55Q0 55 0 51Z " stroke="none" fill-opacity="1" fill="#464353"></path><g id="SvgjsG1476"><text id="SvgjsText1477" font-family="微软雅黑" text-anchor="middle" font-size="13px" width="108px" fill="#323232" font-weight="400" align="middle" lineHeight="125%" font-style="" opacity="1" y="17.875" transform="rotate(0)"></text></g></g><g id="SvgjsG1478" transform="translate(25,218)"><path id="SvgjsPath1479" d="M0 4Q0 0 4 0L311 0Q315 0 315 4L315 53Q315 57 311 57L4 57Q0 57 0 53Z " stroke="none" fill-opacity="1" fill="#464353"></path><g id="SvgjsG1480"><text id="SvgjsText1481" font-family="微软雅黑" text-anchor="middle" font-size="13px" width="295px" fill="#323232" font-weight="400" align="middle" lineHeight="125%" font-style="" opacity="1" y="18.875" transform="rotate(0)"></text></g></g><g id="SvgjsG1482" transform="translate(25,131.00000000000006)"><path id="SvgjsPath1483" d="M0 4Q0 0 4 0L679 0Q683 0 683 4L683 40.999999999999886Q683 44.999999999999886 679 44.999999999999886L4 44.999999999999886Q0 44.999999999999886 0 40.999999999999886Z " stroke="none" fill-opacity="1" fill="#464353"></path><g id="SvgjsG1484"><text id="SvgjsText1485" font-family="微软雅黑" text-anchor="middle" font-size="13px" width="663px" fill="#323232" font-weight="400" align="middle" lineHeight="125%" font-style="" opacity="1" y="12.874999999999943" transform="rotate(0)"></text></g></g><g id="SvgjsG1486" transform="translate(33.25,137)"><path id="SvgjsPath1487" d="M0 4Q0 0 4 0L55 0Q59 0 59 4L59 29Q59 33 55 33L4 33Q0 33 0 29Z " stroke="none" fill-opacity="1" fill="#009999"></path><g id="SvgjsG1488"><text id="SvgjsText1489" font-family="微软雅黑" text-anchor="middle" font-size="18px" width="39px" fill="#ffffff" font-weight="700" align="middle" lineHeight="125%" font-style="" opacity="1" y="3.25" transform="rotate(0)"><tspan id="SvgjsTspan1490" dy="22" x="29.5"><tspan id="SvgjsTspan1491" style="text-decoration:;">http</tspan></tspan></text></g></g><g id="SvgjsG1492" transform="translate(129,137)"><path id="SvgjsPath1493" d="M0 4Q0 0 4 0L99 0Q103 0 103 4L103 29Q103 33 99 33L4 33Q0 33 0 29Z " stroke="none" fill-opacity="1" fill="#009999"></path><g id="SvgjsG1494"><text id="SvgjsText1495" font-family="微软雅黑" text-anchor="middle" font-size="18px" width="83px" fill="#ffffff" font-weight="700" align="middle" lineHeight="125%" font-style="" opacity="1" y="3.25" transform="rotate(0)"><tspan id="SvgjsTspan1496" dy="22" x="51.5"><tspan id="SvgjsTspan1497" style="text-decoration:;">127.0.0.1</tspan></tspan></text></g></g><g id="SvgjsG1498" transform="translate(96.5,136)"><path id="SvgjsPath1499" d="M0 0L29 0L29 35L0 35Z " stroke="none" fill="none"></path><g id="SvgjsG1500"><text id="SvgjsText1501" font-family="微软雅黑" text-anchor="middle" font-size="18px" width="29px" fill="#ffffff" font-weight="700" align="middle" lineHeight="125%" font-style="" opacity="1" y="4.25" transform="rotate(0)"><tspan id="SvgjsTspan1502" dy="22" x="14.5"><tspan id="SvgjsTspan1503" style="text-decoration:;">://</tspan></tspan></text></g></g><g id="SvgjsG1504" transform="translate(232,136)"><path id="SvgjsPath1505" d="M0 0L20 0L20 35L0 35Z " stroke="none" fill="none"></path><g id="SvgjsG1506"><text id="SvgjsText1507" font-family="微软雅黑" text-anchor="middle" font-size="18px" width="20px" fill="#ffffff" font-weight="700" align="middle" lineHeight="125%" font-style="" opacity="1" y="4.25" transform="rotate(0)"><tspan id="SvgjsTspan1508" dy="22" x="10"><tspan id="SvgjsTspan1509" style="text-decoration:;">:</tspan></tspan></text></g></g><g id="SvgjsG1510" transform="translate(252,137)"><path id="SvgjsPath1511" d="M0 4Q0 0 4 0L61 0Q65 0 65 4L65 29Q65 33 61 33L4 33Q0 33 0 29Z " stroke="none" fill-opacity="1" fill="#009999"></path><g id="SvgjsG1512"><text id="SvgjsText1513" font-family="微软雅黑" text-anchor="middle" font-size="18px" width="45px" fill="#ffffff" font-weight="700" align="middle" lineHeight="125%" font-style="" opacity="1" y="3.25" transform="rotate(0)"><tspan id="SvgjsTspan1514" dy="22" x="32.5"><tspan id="SvgjsTspan1515" style="text-decoration:;">8080</tspan></tspan></text></g></g><g id="SvgjsG1516" transform="translate(327,137)"><path id="SvgjsPath1517" d="M0 4Q0 0 4 0L64 0Q68 0 68 4L68 29Q68 33 64 33L4 33Q0 33 0 29Z " stroke="none" fill-opacity="1" fill="#25c2a0"></path><g id="SvgjsG1518"><text id="SvgjsText1519" font-family="微软雅黑" text-anchor="middle" font-size="18px" width="48px" fill="#ffffff" font-weight="700" align="middle" lineHeight="125%" font-style="" opacity="1" y="3.25" transform="rotate(0)"><tspan id="SvgjsTspan1520" dy="22" x="34"><tspan id="SvgjsTspan1521" style="text-decoration:;">/user</tspan></tspan></text></g></g><g id="SvgjsG1522" transform="translate(395,136)"><path id="SvgjsPath1523" d="M0 0L20 0L20 35L0 35Z " stroke="none" fill="none"></path><g id="SvgjsG1524"><text id="SvgjsText1525" font-family="微软雅黑" text-anchor="middle" font-size="18px" width="20px" fill="#ffffff" font-weight="700" align="middle" lineHeight="125%" font-style="" opacity="1" y="4.25" transform="rotate(0)"><tspan id="SvgjsTspan1526" dy="22" x="10"><tspan id="SvgjsTspan1527" style="text-decoration:;">?</tspan></tspan></text></g></g><g id="SvgjsG1528" transform="translate(415,138)"><path id="SvgjsPath1529" d="M0 4Q0 0 4 0L164 0Q168 0 168 4L168 27Q168 31 164 31L4 31Q0 31 0 27Z " stroke="none" fill-opacity="1" fill="#25c2a0"></path><g id="SvgjsG1530"><text id="SvgjsText1531" font-family="微软雅黑" text-anchor="middle" font-size="18px" width="148px" fill="#ffffff" font-weight="700" align="middle" lineHeight="125%" font-style="" opacity="1" y="2.25" transform="rotate(0)"><tspan id="SvgjsTspan1532" dy="22" x="84"><tspan id="SvgjsTspan1533" style="text-decoration:;">uid=32&amp;type=1</tspan></tspan></text></g></g><g id="SvgjsG1534" transform="matrix(6.123233995736766e-17,1,-1,6.123233995736766e-17,341,288)"><path id="SvgjsPath1535" d="M0 315Q2 315 2 306L2 166.5Q2 157.5 22 157.5Q2 157.5 2 148.5L2 9Q2 0 0 0 " stroke="rgba(255,255,255,1)" stroke-width="2" fill="none"></path><path id="SvgjsPath1536" d="M0 0L20 0L20 315L0 315Z " stroke="none" fill="none"></path><g id="SvgjsG1537"><text id="SvgjsText1538" font-family="微软雅黑" text-anchor="start" font-size="13px" width="0" fill="#323232" font-weight="400" align="middle" lineHeight="125%" font-style="" opacity="1" y="147.875" transform="rotate(0)"></text></g></g><g id="SvgjsG1539" transform="translate(25,324)"><path id="SvgjsPath1540" d="M0 4Q0 0 4 0L313 0Q317 0 317 4L317 43Q317 47 313 47L4 47Q0 47 0 43Z " stroke="none" fill-opacity="1" fill="#25c2a0"></path><g id="SvgjsG1541"><text id="SvgjsText1542" font-family="微软雅黑" text-anchor="middle" font-size="18px" width="297px" fill="#ffffff" font-weight="700" align="middle" lineHeight="125%" font-style="" opacity="1" y="10.25" transform="rotate(0)"><tspan id="SvgjsTspan1543" dy="22" x="158.5"><tspan id="SvgjsTspan1544" style="text-decoration:;">根地址</tspan></tspan></text></g></g><g id="SvgjsG1545" transform="translate(32.75000000000006,227)"><path id="SvgjsPath1546" d="M0 4Q0 0 4 0L51.24999999999994 0Q55.24999999999994 0 55.24999999999994 4L55.24999999999994 35Q55.24999999999994 39 51.24999999999994 39L4 39Q0 39 0 35Z " stroke="none" fill-opacity="1" fill="#009999"></path><g id="SvgjsG1547"><text id="SvgjsText1548" font-family="微软雅黑" text-anchor="middle" font-size="15px" width="36px" fill="#ffffff" font-weight="700" align="middle" lineHeight="125%" font-style="" opacity="1" y="8.625" transform="rotate(0)"><tspan id="SvgjsTspan1549" dy="18" x="28"><tspan id="SvgjsTspan1550" style="text-decoration:;">协议</tspan></tspan></text></g></g><g id="SvgjsG1551" transform="translate(96.5,227)"><path id="SvgjsPath1552" d="M0 4Q0 0 4 0L155 0Q159 0 159 4L159 35Q159 39 155 39L4 39Q0 39 0 35Z " stroke="none" fill-opacity="1" fill="#009999"></path><g id="SvgjsG1553"><text id="SvgjsText1554" font-family="微软雅黑" text-anchor="middle" font-size="15px" width="139px" fill="#ffffff" font-weight="700" align="middle" lineHeight="125%" font-style="" opacity="1" y="8.625" transform="rotate(0)"><tspan id="SvgjsTspan1555" dy="18" x="79.5"><tspan id="SvgjsTspan1556" style="text-decoration:;">域名/IP地址/主机名</tspan></tspan></text></g></g><g id="SvgjsG1557" transform="translate(265.625,227)"><path id="SvgjsPath1558" d="M0 4Q0 0 4 0L62.75 0Q66.75 0 66.75 4L66.75 35Q66.75 39 62.75 39L4 39Q0 39 0 35Z " stroke="none" fill-opacity="1" fill="#009999"></path><g id="SvgjsG1559"><text id="SvgjsText1560" font-family="微软雅黑" text-anchor="middle" font-size="15px" width="47px" fill="#ffffff" font-weight="700" align="middle" lineHeight="125%" font-style="" opacity="1" y="8.625" transform="rotate(0)"><tspan id="SvgjsTspan1561" dy="18" x="33.5"><tspan id="SvgjsTspan1562" style="text-decoration:;">端口号</tspan></tspan></text></g></g><g id="SvgjsG1563" transform="translate(293,33)"><path id="SvgjsPath1564" d="M0 4Q0 0 4 0L102.875 0Q106.875 0 106.875 4L106.875 35Q106.875 39 102.875 39L4 39Q0 39 0 35Z " stroke="none" fill-opacity="1" fill="#25c2a0"></path><g id="SvgjsG1565"><text id="SvgjsText1566" font-family="微软雅黑" text-anchor="middle" font-size="15px" width="87px" fill="#ffffff" font-weight="700" align="middle" lineHeight="125%" font-style="" opacity="1" y="8.625" transform="rotate(0)"><tspan id="SvgjsTspan1567" dy="18" x="53.5"><tspan id="SvgjsTspan1568" style="text-decoration:;">路径地址</tspan></tspan></text></g></g><g id="SvgjsG1569" transform="matrix(6.123233995736766e-17,1,-1,6.123233995736766e-17,74.87500000000003,172.50000000000003)"><path id="SvgjsPath1570" d="M0 12.125000000000028L12.125000000000028 0L12.125000000000028 8.002500000000019L50.5 8.002500000000019L50.5 16.247500000000038L12.125000000000028 16.247500000000038L12.125000000000028 24.250000000000057L0 12.125000000000028Z " stroke="rgba(255,255,255,1)" stroke-width="2" fill-opacity="1" fill="#ffffff"></path><g id="SvgjsG1571"><text id="SvgjsText1572" font-family="微软雅黑" text-anchor="middle" font-size="13px" width="51px" fill="#323232" font-weight="400" align="middle" lineHeight="125%" font-style="" opacity="1" y="2.5000000000000293" transform="rotate(0)"></text></g></g><g id="SvgjsG1573" transform="matrix(6.123233995736766e-17,1,-1,6.123233995736766e-17,181.62500000000003,172.50000000000003)"><path id="SvgjsPath1574" d="M0 12.125000000000028L12.125000000000028 0L12.125000000000028 8.002500000000019L50.5 8.002500000000019L50.5 16.247500000000038L12.125000000000028 16.247500000000038L12.125000000000028 24.250000000000057L0 12.125000000000028Z " stroke="rgba(255,255,255,1)" stroke-width="2" fill-opacity="1" fill="#ffffff"></path><g id="SvgjsG1575"><text id="SvgjsText1576" font-family="微软雅黑" text-anchor="middle" font-size="13px" width="51px" fill="#323232" font-weight="400" align="middle" lineHeight="125%" font-style="" opacity="1" y="2.5000000000000293" transform="rotate(0)"></text></g></g><g id="SvgjsG1577" transform="matrix(6.123233995736766e-17,1,-1,6.123233995736766e-17,308,172.50000000000003)"><path id="SvgjsPath1578" d="M0 12.125000000000028L12.125000000000028 0L12.125000000000028 8.002500000000019L50.5 8.002500000000019L50.5 16.247500000000038L12.125000000000028 16.247500000000038L12.125000000000028 24.250000000000057L0 12.125000000000028Z " stroke="rgba(255,255,255,1)" stroke-width="2" fill-opacity="1" fill="#ffffff"></path><g id="SvgjsG1579"><text id="SvgjsText1580" font-family="微软雅黑" text-anchor="middle" font-size="13px" width="51px" fill="#323232" font-weight="400" align="middle" lineHeight="125%" font-style="" opacity="1" y="2.5000000000000293" transform="rotate(0)"></text></g></g><g id="SvgjsG1581" transform="translate(435,33)"><path id="SvgjsPath1582" d="M0 4Q0 0 4 0L124 0Q128 0 128 4L128 35Q128 39 124 39L4 39Q0 39 0 35Z " stroke="none" fill-opacity="1" fill="#25c2a0"></path><g id="SvgjsG1583"><text id="SvgjsText1584" font-family="微软雅黑" text-anchor="middle" font-size="15px" width="108px" fill="#ffffff" font-weight="700" align="middle" lineHeight="125%" font-style="" opacity="1" y="8.625" transform="rotate(0)"><tspan id="SvgjsTspan1585" dy="18" x="64"><tspan id="SvgjsTspan1586" style="text-decoration:;">查询参数</tspan></tspan></text></g></g><g id="SvgjsG1587" transform="matrix(-1.8369701987210297e-16,-1,1,-1.8369701987210297e-16,343,129.37500000000003)"><path id="SvgjsPath1588" d="M0 12.125000000000028L12.125000000000028 0L12.125000000000028 8.002500000000019L50.5 8.002500000000019L50.5 16.247500000000038L12.125000000000028 16.247500000000038L12.125000000000028 24.250000000000057L0 12.125000000000028Z " stroke="rgba(255,255,255,1)" stroke-width="2" fill-opacity="1" fill="#ffffff"></path><g id="SvgjsG1589"><text id="SvgjsText1590" font-family="微软雅黑" text-anchor="middle" font-size="13px" width="51px" fill="#323232" font-weight="400" align="middle" lineHeight="125%" font-style="" opacity="1" y="2.5000000000000293" transform="rotate(0)"></text></g></g><g id="SvgjsG1591" transform="matrix(-1.8369701987210297e-16,-1,1,-1.8369701987210297e-16,481.875,129.37500000000003)"><path id="SvgjsPath1592" d="M0 12.125000000000028L12.125000000000028 0L12.125000000000028 8.002500000000019L50.5 8.002500000000019L50.5 16.247500000000038L12.125000000000028 16.247500000000038L12.125000000000028 24.250000000000057L0 12.125000000000028Z " stroke="rgba(255,255,255,1)" stroke-width="2" fill-opacity="1" fill="#ffffff"></path><g id="SvgjsG1593"><text id="SvgjsText1594" font-family="微软雅黑" text-anchor="middle" font-size="13px" width="51px" fill="#323232" font-weight="400" align="middle" lineHeight="125%" font-style="" opacity="1" y="2.5000000000000293" transform="rotate(0)"></text></g></g><g id="SvgjsG1595" transform="translate(583,136)"><path id="SvgjsPath1596" d="M0 0L20 0L20 35L0 35Z " stroke="none" fill="none"></path><g id="SvgjsG1597"><text id="SvgjsText1598" font-family="微软雅黑" text-anchor="middle" font-size="18px" width="20px" fill="#ffffff" font-weight="700" align="middle" lineHeight="125%" font-style="" opacity="1" y="4.25" transform="rotate(0)"><tspan id="SvgjsTspan1599" dy="22" x="10"><tspan id="SvgjsTspan1600" style="text-decoration:;">#</tspan></tspan></text></g></g><g id="SvgjsG1601" transform="translate(603,138)"><path id="SvgjsPath1602" d="M0 4Q0 0 4 0L93 0Q97 0 97 4L97 27Q97 31 93 31L4 31Q0 31 0 27Z " stroke="none" fill-opacity="1" fill="#25c2a0"></path><g id="SvgjsG1603"><text id="SvgjsText1604" font-family="微软雅黑" text-anchor="middle" font-size="18px" width="77px" fill="#ffffff" font-weight="700" align="middle" lineHeight="125%" font-style="" opacity="1" y="2.25" transform="rotate(0)"><tspan id="SvgjsTspan1605" dy="22" x="48.5"><tspan id="SvgjsTspan1606" style="text-decoration:;">abcdefg</tspan></tspan></text></g></g><g id="SvgjsG1607" transform="translate(621.25,227)"><path id="SvgjsPath1608" d="M0 4Q0 0 4 0L41.8125 0Q45.8125 0 45.8125 4L45.8125 35Q45.8125 39 41.8125 39L4 39Q0 39 0 35Z " stroke="none" fill-opacity="1" fill="#25c2a0"></path><g id="SvgjsG1609"><text id="SvgjsText1610" font-family="微软雅黑" text-anchor="middle" font-size="15px" width="26px" fill="#ffffff" font-weight="700" align="middle" lineHeight="125%" font-style="" opacity="1" y="8.625" transform="rotate(0)"><tspan id="SvgjsTspan1611" dy="18" x="23"><tspan id="SvgjsTspan1612" style="text-decoration:;">锚</tspan></tspan></text></g></g><g id="SvgjsG1613" transform="matrix(6.123233995736766e-17,1,-1,6.123233995736766e-17,658.625,172.50000000000003)"><path id="SvgjsPath1614" d="M0 12.125000000000028L12.125000000000028 0L12.125000000000028 8.002500000000019L50.5 8.002500000000019L50.5 16.247500000000038L12.125000000000028 16.247500000000038L12.125000000000028 24.250000000000057L0 12.125000000000028Z " stroke="rgba(255,255,255,1)" stroke-width="2" fill-opacity="1" fill="#ffffff"></path><g id="SvgjsG1615"><text id="SvgjsText1616" font-family="微软雅黑" text-anchor="middle" font-size="13px" width="51px" fill="#323232" font-weight="400" align="middle" lineHeight="125%" font-style="" opacity="1" y="2.5000000000000293" transform="rotate(0)"></text></g></g></svg>